<svg width="13" height="11" viewBox="0 0 13 11" fill="none" xmlns="http://www.w3.org/2000/svg">
<path d="M0.380449 9.62939C0.077094 9.86905 0.0254542 10.3092 0.265109 10.6126C0.504764 10.916 0.944961 10.9676 1.24832 10.7279L0.380449 9.62939ZM11.7107 2.46254C12.014 2.22289 12.0657 1.78269 11.826 1.47934C11.5864 1.17598 11.1462 1.12434 10.8428 1.364L11.7107 2.46254ZM6.15667 0.0145413C5.77251 -0.0287879 5.42596 0.247512 5.38263 0.631675C5.3393 1.01584 5.6156 1.36239 5.99976 1.40572L6.15667 0.0145413ZM8.13365 0.941963L8.0552 1.63755L8.13365 0.941963ZM11.4943 5.19582L12.1891 5.28048L11.4943 5.19582ZM10.5492 7.16445C10.5025 7.54821 10.7757 7.89721 11.1594 7.94397C11.5432 7.99072 11.8922 7.71753 11.939 7.33376L10.5492 7.16445ZM11.1019 1.71866L11.5919 1.21876L11.5919 1.21876L11.1019 1.71866ZM11.4256 2.12843L12.0253 1.76743L12.0253 1.76743L11.4256 2.12843ZM1.24832 10.7279L11.7107 2.46254L10.8428 1.364L0.380449 9.62939L1.24832 10.7279ZM5.99976 1.40572L8.0552 1.63755L8.21211 0.246374L6.15667 0.0145413L5.99976 1.40572ZM10.7994 5.11116L10.5492 7.16445L11.939 7.33376L12.1891 5.28048L10.7994 5.11116ZM8.0552 1.63755C8.89114 1.73184 9.45919 1.79698 9.88485 1.89465C10.2967 1.98915 10.4872 2.09633 10.6119 2.21856L11.5919 1.21876C11.2071 0.841617 10.7331 0.652888 10.198 0.530107C9.67666 0.410494 9.01534 0.33697 8.21211 0.246374L8.0552 1.63755ZM12.1891 5.28048C12.2869 4.47809 12.3684 3.8177 12.3727 3.28288C12.3771 2.73389 12.3032 2.22903 12.0253 1.76743L10.8259 2.48943C10.9159 2.63904 10.9761 2.84913 10.9727 3.27168C10.9692 3.70838 10.9011 4.27609 10.7994 5.11116L12.1891 5.28048ZM10.6119 2.21856C10.6944 2.29944 10.7663 2.39044 10.8259 2.48943L12.0253 1.76743C11.9046 1.56692 11.759 1.38258 11.5919 1.21876L10.6119 2.21856Z" fill="white"/>
</svg>
