<svg width="85" height="36" viewBox="0 0 85 36" fill="none" xmlns="http://www.w3.org/2000/svg">
<path d="M0.699875 16.849C1.018 16.743 1.47398 16.6899 2.06781 16.6899C3.91294 16.6899 5.11123 16.8702 5.66265 17.2308C5.91714 17.3792 6.09739 17.6443 6.20343 18.0261C6.28826 18.3654 6.3307 19.0653 6.3307 20.1257C6.3307 21.3558 6.36251 21.9708 6.42612 21.9708L6.55338 21.9072C6.70183 21.8224 6.79729 21.7694 6.83968 21.7482L7.15783 21.5891C7.85768 21.2498 8.59998 21.0801 9.38471 21.0801C9.59676 21.0801 9.73462 21.0907 9.79827 21.1119C10.286 21.1755 10.8481 21.324 11.4843 21.5573C12.1206 21.7694 12.5766 21.9708 12.8523 22.1617C13.5521 22.6919 14.1248 23.5084 14.5701 24.6113C15.0155 25.7141 15.3337 26.8275 15.5245 27.9516C15.7366 29.0756 15.8426 29.977 15.8426 30.6556V31.2601C15.8214 31.4722 15.8108 31.7373 15.8108 32.0554C15.7896 32.5644 15.779 33.0946 15.779 33.646C15.779 33.9217 15.726 34.2505 15.6199 34.6322C15.5139 35.0139 15.4185 35.2473 15.3337 35.3321C15.2488 35.4169 15.0261 35.5124 14.6656 35.6184C14.3262 35.7244 14.0293 35.7775 13.7748 35.7775H12.3115C10.8905 35.7775 10.074 35.7032 9.86188 35.5548L9.57559 35.3639V33.1688C9.57559 30.6026 9.43773 28.906 9.16202 28.0789C9.03476 27.6971 8.84388 27.3578 8.58939 27.0608C8.3349 26.7427 8.1228 26.5836 7.95314 26.5836C7.71983 26.5836 7.45475 26.7109 7.15783 26.9654C6.88212 27.1987 6.65943 27.4956 6.48977 27.8562C6.32007 28.2167 6.22465 28.5242 6.20343 28.7787C6.13982 29.2877 6.09739 30.2739 6.07621 31.7373C6.03377 33.4552 5.97016 34.5474 5.88533 35.014C5.8005 35.4594 5.68382 35.7351 5.53538 35.8411C5.38694 35.9471 5.07938 36.0001 4.6128 36.0001C3.40396 36.0001 2.46017 35.9259 1.7815 35.7775C1.16646 35.6078 0.805915 35.4594 0.699875 35.3321C0.487792 35.0776 0.349938 34.558 0.286313 33.7733C0.243894 32.9886 0.201479 31.5888 0.159059 29.574L0.127249 27.4108C0.042415 22.8085 0 20.0409 0 19.1077C0 18.4078 0.0530198 17.8776 0.159059 17.5171C0.265103 17.1777 0.445372 16.9551 0.699875 16.849ZM23.3427 21.1437C24.1062 21.0589 24.8167 21.0164 25.4741 21.0164C26.1952 21.0164 26.8951 21.0695 27.5737 21.1755C29.1644 21.4724 30.5217 22.0981 31.6458 23.0524C32.7698 24.0068 33.4591 25.1203 33.7136 26.3928C33.7772 26.6685 33.809 27.029 33.809 27.4744C33.809 28.7681 33.6075 29.9133 33.2046 30.9101C32.8228 31.8857 32.1866 32.8083 31.2958 33.6778C30.4687 34.4838 29.6204 35.0458 28.7508 35.3639C27.8813 35.6608 26.9799 35.8093 26.0468 35.8093C24.4137 35.8093 22.9291 35.4169 21.593 34.6322C20.2569 33.8475 19.207 32.8719 18.4436 31.7055C17.7013 30.539 17.3301 29.4256 17.3301 28.3651C17.3301 28.0258 17.3831 27.5168 17.4892 26.8382C18.1891 23.4236 20.1402 21.5255 23.3427 21.1437ZM26.4285 26.2337C26.174 26.1277 25.9407 26.0747 25.7286 26.0747C25.4317 26.0747 25.1772 26.1489 24.9651 26.2973C24.2016 26.7639 23.8199 27.432 23.8199 28.3015C23.8199 28.6196 23.9047 28.9802 24.0744 29.3832C24.4561 30.1679 25.0606 30.5602 25.8877 30.5602C26.3331 30.5602 26.7148 30.4224 27.033 30.1467C27.3511 29.8497 27.5419 29.4786 27.6055 29.0332C27.6268 28.9696 27.6374 28.8423 27.6374 28.6514C27.6374 28.1425 27.5207 27.6547 27.2874 27.1881C27.0541 26.7215 26.7678 26.4034 26.4285 26.2337ZM53.3829 21.5255C53.7436 21.4194 54.1675 21.3664 54.6556 21.3664C55.2069 21.3664 55.843 21.5573 56.5644 21.939C57.2853 22.2996 57.8577 22.798 58.2821 23.4342C58.706 24.0705 59.0348 25.0142 59.2681 26.2655C59.4592 27.3259 59.6077 29.065 59.7135 31.4828C59.7346 31.7161 59.7454 32.1827 59.7454 32.8825C59.7454 34.2187 59.544 35.0882 59.1411 35.4912L58.7912 35.8411L56.2777 35.7775L54.3371 35.8093C54.019 35.8093 53.7965 35.7669 53.6691 35.682C53.5633 35.5972 53.4888 35.4381 53.4466 35.2048C53.4255 34.9503 53.4148 34.4944 53.4148 33.8369C53.4148 33.1582 53.404 32.5856 53.3829 32.119C53.3192 29.9133 53.2134 28.4712 53.0649 27.7925C52.9164 27.0927 52.6194 26.6897 52.174 26.5836C52.1318 26.5625 52.047 26.5518 51.9196 26.5518C51.58 26.5518 51.2516 26.6791 50.9331 26.9336C50.6366 27.1669 50.4137 27.4744 50.2652 27.8562C50.1167 28.2803 50.0427 29.2559 50.0427 30.7829C50.0427 31.6313 50.0848 32.469 50.1696 33.2961L50.297 34.664C50.297 34.9821 50.2015 35.1942 50.0108 35.3003C49.8412 35.3639 49.3747 35.4169 48.6112 35.4594C48.4201 35.4805 48.2079 35.4912 47.9746 35.4912L46.1614 35.5548C45.589 35.5548 45.2494 35.4594 45.1435 35.2685C45.0372 34.9503 44.7936 32.9037 44.4119 29.1287C44.3271 28.3864 44.2208 27.7713 44.0938 27.2835C44.009 26.9442 43.8498 26.7745 43.6165 26.7745C43.468 26.7745 43.2455 26.8593 42.9485 27.029C42.4394 27.3259 42.1106 27.8243 41.9622 28.5242C41.7501 29.2665 41.6335 30.539 41.6123 32.3417C41.6123 32.8719 41.6017 33.2431 41.5805 33.4552C41.5592 34.5368 41.485 35.173 41.3578 35.3639C41.2305 35.5548 40.9124 35.6502 40.4034 35.6502C39.8944 35.6502 39.4596 35.6608 39.0991 35.682L37.5084 35.7457C36.6601 35.7457 36.1405 35.5654 35.9497 35.2048C35.7163 34.6746 35.5997 31.5464 35.5997 25.8202L35.5679 23.4342C35.5679 22.8404 35.6421 22.4374 35.7906 22.2253C35.939 21.9921 36.2147 21.8542 36.6177 21.8118C37.0419 21.7482 37.816 21.7163 38.94 21.7163C40.0853 21.7163 40.8064 21.78 41.1033 21.9072C41.4214 22.0557 41.5805 22.3102 41.5805 22.6707C41.5805 22.8192 41.6229 22.8934 41.7077 22.8934C41.7926 22.8934 42.0258 22.7662 42.4075 22.5117C43.468 21.833 44.6344 21.4937 45.907 21.4937C47.561 21.4937 48.8019 21.9921 49.6291 22.9888L50.0427 23.4978L50.7425 22.9252C51.5271 22.2889 52.4072 21.8224 53.3829 21.5255ZM62.9367 18.2488C63.467 17.6974 64.082 17.4216 64.7818 17.4216C65.4816 17.4216 66.0859 17.6656 66.5951 18.1533C67.1042 18.6411 67.3586 19.1819 67.3586 19.7758V20.1893C67.316 20.8044 67.0724 21.2922 66.6269 21.6527C66.1815 21.9921 65.5875 22.1617 64.8455 22.1617H64.6544C63.912 22.1193 63.3077 21.9072 62.8412 21.5255C62.3957 21.1225 62.1732 20.6135 62.1732 19.9984C62.1732 19.6803 62.2262 19.394 62.332 19.1395C62.4384 18.8638 62.6398 18.5669 62.9367 18.2488ZM64.2727 23.3388C64.6755 23.3388 64.994 23.3282 65.2273 23.3069H66.0859H66.4358C66.7328 23.3069 66.9768 23.3388 67.1675 23.4024C67.3375 23.466 67.4434 23.5403 67.486 23.6251C67.5492 23.7099 67.5919 23.8796 67.6129 24.1341C67.6555 24.6855 67.6766 26.6473 67.6766 30.0194C67.6766 33.5612 67.6345 35.3745 67.5492 35.4594C67.3797 35.629 66.7117 35.7139 65.5453 35.7139H64.4001L63.541 35.682C63.0319 35.682 62.7353 35.6714 62.6501 35.6502C62.4384 35.629 62.2683 35.5548 62.1414 35.4275L61.8866 35.173L61.8552 30.8783V29.5422C61.8552 25.8307 61.9821 23.8372 62.2369 23.5615C62.3428 23.4342 63.0215 23.36 64.2727 23.3388ZM76.1032 20.5393C76.6335 20.4332 77.1848 20.3802 77.7577 20.3802H78.1713C79.0407 20.4226 79.7297 20.5711 80.2389 20.8256C80.748 21.0801 81.3734 21.5785 82.1158 22.3208C83.2611 23.466 83.9927 24.6961 84.3108 26.011C84.4171 26.5412 84.47 26.9866 84.47 27.3471C84.47 28.6409 84.2579 29.3726 83.8339 29.5422H78.553C76.8775 29.5422 76.0396 29.5528 76.0396 29.574C76.0396 29.8285 76.2836 30.1042 76.7712 30.4012C77.2593 30.6769 77.8317 30.889 78.4893 31.0374C78.8496 31.101 79.1784 31.1329 79.4754 31.1329C79.963 31.1329 80.6099 31.0056 81.416 30.7511C82.031 30.5814 82.4235 30.4966 82.5931 30.4966C82.8053 30.4966 82.9749 30.5602 83.1018 30.6874C83.2503 30.8995 83.4733 31.2919 83.7702 31.8645C84.0672 32.4372 84.2152 32.8401 84.2152 33.0734C84.2152 33.54 83.8232 33.9959 83.0386 34.4414C82.275 34.9079 81.4689 35.2367 80.6206 35.4275C79.7934 35.6184 78.8074 35.7139 77.6621 35.7139C76.2625 35.7139 75.1805 35.5866 74.4174 35.3321C73.6539 35.0776 72.837 34.5262 71.9676 33.6778C71.0982 32.8295 70.5043 32.0024 70.1862 31.1965C69.8682 30.3906 69.7089 29.4468 69.7089 28.3651C69.7089 27.1775 69.8785 26.0959 70.2181 25.1203C70.5783 24.1447 71.2467 23.2433 72.222 22.4162C73.2403 21.5255 74.534 20.8998 76.1032 20.5393ZM79.0936 25.502C78.8182 24.9718 78.3409 24.7067 77.6621 24.7067C77.1956 24.7067 76.782 24.8446 76.4213 25.1203C76.0822 25.396 75.9018 25.7459 75.8807 26.1701L75.8489 26.5518L77.4078 26.6473L78.7118 26.7109H78.8711C78.9559 26.7109 79.0088 26.7003 79.0299 26.6791H79.0936H79.1573C79.2421 26.6579 79.2847 26.5306 79.2847 26.2973C79.2847 26.0216 79.221 25.7565 79.0936 25.502Z" fill="#322C27"/>
<path d="M9.78673 0.413562C10.2533 0.137854 11.0274 0 12.109 0H13.0316H14.3041C14.5162 0 14.7707 0.0530198 15.0676 0.159064C15.3857 0.265103 15.5872 0.360543 15.672 0.445377C15.7356 0.509001 15.8099 0.731686 15.8947 1.11344C16.0008 1.47398 16.0538 1.7709 16.0538 2.00419C16.0538 2.51319 16.0644 3.01158 16.0856 3.49939L16.1492 5.8535L16.9445 5.50355C18.0898 5.01578 19.0548 4.77188 19.8395 4.77188C20.2849 4.77188 20.7302 4.83549 21.1756 4.96276C23.4449 5.55657 24.9401 7.17901 25.6612 9.83009C25.8096 10.2966 25.8839 10.9965 25.8839 11.9297C25.8839 12.778 25.8096 13.3931 25.6612 13.7748C25.1946 15.1746 24.5159 16.3305 23.6252 17.2424C22.7344 18.1544 21.7164 18.727 20.5712 18.9603C20.253 19.0239 19.9137 19.0557 19.5532 19.0557C18.2171 19.0557 17.093 18.78 16.181 18.2286L15.5448 17.8787C15.5024 17.8787 15.4175 18.0165 15.2903 18.2922C15.163 18.5679 14.9934 18.7376 14.7813 18.8012H14.654H14.3995C14.3147 18.8224 14.1981 18.833 14.0496 18.833C13.8163 18.833 13.6042 18.8224 13.4133 18.8012H12.7135C11.7803 18.78 11.1334 18.7164 10.7729 18.6103C10.1366 18.3983 9.78673 17.9529 9.72308 17.2742C9.70186 16.9985 9.67005 16.1289 9.62766 14.6656V14.2202V13.7748C9.60644 13.6688 9.59585 13.4991 9.59585 13.2658C9.57464 10.8481 9.50039 8.15462 9.37313 5.18544C9.30952 3.8493 9.27771 2.87373 9.27771 2.25869C9.27771 1.24069 9.44737 0.625646 9.78673 0.413562ZM19.0442 9.70282C18.8321 9.55438 18.4503 9.48014 17.8989 9.48014C17.3051 9.48014 16.8915 9.52253 16.6582 9.60736C16.4461 9.67102 16.3083 9.84068 16.2447 10.1164C16.181 10.3709 16.1386 10.8481 16.1174 11.5479C16.0962 11.7176 16.0856 12.0145 16.0856 12.4387C16.0856 12.7992 16.1704 13.0643 16.3401 13.234C16.5098 13.4037 16.8067 13.5522 17.2309 13.6794C17.6338 13.8066 17.9731 13.8703 18.2489 13.8703C18.2912 13.8703 18.3231 13.8597 18.3443 13.8384H18.4397C18.9063 13.7324 19.2669 13.4779 19.5213 13.0749C19.7971 12.6508 19.9349 12.2584 19.9349 11.8979C19.9349 11.6646 19.9243 11.5161 19.9031 11.4525C19.8395 10.6042 19.5532 10.0209 19.0442 9.70282Z" fill="#322C27"/>
<path d="M53.2379 4.45357C53.7044 4.32635 54.1813 4.2627 54.6693 4.2627C56.1327 4.2627 57.2779 4.66567 58.1051 5.47158C58.9324 6.27753 59.5259 7.29553 59.8865 8.52558C60.0561 9.09822 60.1517 10.7949 60.1727 13.6156V15.6198C60.1727 17.0832 60.109 17.8785 59.9821 18.0057C59.8973 18.133 59.7273 18.2072 59.4729 18.2284C59.2186 18.2708 58.4551 18.3026 57.1824 18.3239L54.5738 18.3875L54.4464 18.1012C54.4253 18.0163 54.3616 16.9877 54.2557 15.0154C54.2346 13.4247 54.1602 12.2053 54.0332 11.3569C53.9058 10.7419 53.6618 10.2329 53.3011 9.82993C53.1105 9.63905 52.8561 9.54359 52.5376 9.54359C50.9895 9.54359 50.2157 10.9964 50.2157 13.9019C50.2157 14.729 50.226 15.2911 50.2475 15.588C50.2686 15.9909 50.2789 16.6378 50.2789 17.5285C50.2789 18.08 50.2475 18.3875 50.1838 18.4511C50.1201 18.5147 49.5158 18.5678 48.3706 18.6102C47.2464 18.6526 46.2604 18.6738 45.4116 18.6738C45.0725 18.6738 44.8392 18.6526 44.7118 18.6102C44.6059 18.5678 44.5315 18.4723 44.4893 18.3239C44.4467 18.1754 44.4149 17.9103 44.3938 17.5285C44.3727 17.274 44.3619 16.3091 44.3619 14.6336L44.3301 11.7705V8.62105L44.2982 6.33055C44.2982 5.7367 44.3301 5.32313 44.3938 5.08982C44.4786 4.83533 44.6378 4.67626 44.8711 4.61265C45.1043 4.52782 45.4969 4.48542 46.0482 4.48542H47.6389C48.8053 4.48542 49.5158 4.5384 49.7702 4.64445C49.9824 4.72928 50.0883 5.06864 50.0883 5.66245C50.0883 6.17148 50.1201 6.42597 50.1838 6.42597C50.2475 6.42597 50.4911 6.2245 50.9155 5.82153C51.6575 5.14284 52.4317 4.68689 53.2379 4.45357Z" fill="#322C27"/>
<mask id="mask0_827_6773" style="mask-type:luminance" maskUnits="userSpaceOnUse" x="25" y="1" width="19" height="20">
<path d="M43.7426 1.54443H25.2358V20.0512H43.7426V1.54443Z" fill="white"/>
</mask>
<g mask="url(#mask0_827_6773)">
<mask id="mask1_827_6773" style="mask-type:luminance" maskUnits="userSpaceOnUse" x="25" y="1" width="19" height="20">
<path d="M25.2358 1.54443H43.7426V20.0512H25.2358V1.54443Z" fill="white"/>
</mask>
<g mask="url(#mask1_827_6773)">
<path d="M26.7295 7.54447C26.7295 3.25919 32.6633 1.67101 34.4892 6.63183C36.315 1.67101 42.2487 3.25919 42.2487 7.54447C42.2487 12.2004 34.4892 18.1036 34.4892 18.1036C34.4892 18.1036 26.7295 12.2004 26.7295 7.54447Z" fill="#E35158"/>
</g>
</g>
</svg>
