<svg width="18" height="17" viewBox="0 0 18 17" fill="none" xmlns="http://www.w3.org/2000/svg">
<g id="Call">
<path id="Vector" d="M2.96738 1.79851C3.02625 1.73964 3.05569 1.7102 3.08162 1.68637C3.71925 1.10047 4.69934 1.10047 5.33697 1.68637C5.3629 1.7102 5.39234 1.73964 5.45121 1.79851L6.66637 3.01367C7.33475 3.68205 7.52591 4.69141 7.14821 5.5579C6.77051 6.42439 6.96166 7.43375 7.63004 8.10213L9.62738 10.0995C10.2958 10.7678 11.3051 10.959 12.1716 10.5813C13.0381 10.2036 14.0475 10.3948 14.7158 11.0631L15.931 12.2783C15.9899 12.3372 16.0193 12.3666 16.0431 12.3925C16.629 13.0302 16.629 14.0103 16.0431 14.6479C16.0193 14.6738 15.9899 14.7033 15.931 14.7621L15.1924 15.5008C14.5909 16.1022 13.7238 16.3547 12.8934 16.1702C7.2354 14.9129 2.81662 10.4941 1.55929 4.83611C1.37476 4.00573 1.62726 3.13862 2.22876 2.53713L2.96738 1.79851Z" stroke="#9CB3F4" stroke-width="1.4"/>
</g>
</svg>
