<svg width="30" height="30" viewBox="0 0 30 30" fill="none" xmlns="http://www.w3.org/2000/svg">
<g id="Call">
<path id="Vector" d="M4.14128 2.49281C4.24725 2.38684 4.30023 2.33385 4.34691 2.29096C5.49465 1.23635 7.25881 1.23635 8.40655 2.29096C8.45322 2.33385 8.50621 2.38684 8.61218 2.49281L10.7995 4.6801C12.0025 5.88318 12.3466 7.70004 11.6668 9.25971C10.9869 10.8194 11.331 12.6362 12.5341 13.8393L16.1293 17.4345C17.3324 18.6376 19.1492 18.9817 20.7089 18.3018C22.2686 17.622 24.0854 17.9661 25.2885 19.1691L27.4758 21.3564C27.5818 21.4624 27.6348 21.5154 27.6776 21.5621C28.7323 22.7098 28.7323 24.474 27.6776 25.6217C27.6348 25.6684 27.5818 25.7214 27.4758 25.8273L26.1463 27.1568C25.0636 28.2395 23.5028 28.694 22.0081 28.3619C11.8237 26.0987 3.86992 18.1449 1.60673 7.9605C1.27457 6.46581 1.72908 4.90501 2.81177 3.82232L4.14128 2.49281Z" stroke="#FFCCD5" stroke-width="2.8"/>
</g>
</svg>
