<svg width="18" height="20" viewBox="0 0 18 20" fill="none" xmlns="http://www.w3.org/2000/svg">
<g id="Bag 7">
<path id="Vector" d="M12.3334 7.50008H5.66669M5.66669 5.06898V5.00008C5.66669 3.15913 7.15908 1.66675 9.00003 1.66675C10.841 1.66675 12.3334 3.15913 12.3334 5.00008V5.06898M5.66669 5.06898C6.32229 5.00008 7.15772 5.00008 8.32328 5.00008H9.67677C10.8423 5.00008 11.6778 5.00008 12.3334 5.06898M5.66669 5.06898C5.16498 5.12171 4.76859 5.21479 4.41016 5.37911C3.68158 5.71311 3.0648 6.25015 2.63374 6.92585C2.14458 7.69265 2.00305 8.71164 1.72 10.7496C1.35652 13.3667 1.17478 14.6752 1.57439 15.6915C1.9252 16.5837 2.57295 17.3276 3.40839 17.7978C4.36004 18.3334 5.68112 18.3334 8.32328 18.3334H9.67677C12.3189 18.3334 13.64 18.3334 14.5917 17.7978C15.4271 17.3276 16.0749 16.5837 16.4257 15.6915C16.8253 14.6752 16.6435 13.3667 16.2801 10.7496C15.997 8.71164 15.8555 7.69265 15.3663 6.92585C14.9353 6.25015 14.3185 5.71311 13.5899 5.37911C13.2315 5.21479 12.8351 5.12171 12.3334 5.06898" stroke="#333333" stroke-width="1.4" stroke-linecap="round"/>
</g>
</svg>
