<svg width="18" height="20" viewBox="0 0 18 20" fill="none" xmlns="http://www.w3.org/2000/svg">
<g id="Bag 7">
<path id="Vector" d="M12.3334 7.5H5.66669M5.66669 5.06891V5.00001C5.66669 3.15906 7.15908 1.66667 9.00003 1.66667C10.841 1.66667 12.3334 3.15906 12.3334 5.00001V5.06891M5.66669 5.06891C6.32229 5 7.15772 5.00001 8.32328 5.00001H9.67677C10.8423 5.00001 11.6778 5 12.3334 5.06891M5.66669 5.06891C5.16498 5.12164 4.76859 5.21472 4.41016 5.37903C3.68158 5.71303 3.0648 6.25007 2.63374 6.92578C2.14458 7.69258 2.00305 8.71157 1.72 10.7495C1.35652 13.3666 1.17478 14.6751 1.57439 15.6914C1.9252 16.5836 2.57295 17.3275 3.40839 17.7977C4.36004 18.3333 5.68112 18.3333 8.32328 18.3333H9.67677C12.3189 18.3333 13.64 18.3333 14.5917 17.7977C15.4271 17.3275 16.0749 16.5836 16.4257 15.6914C16.8253 14.6751 16.6435 13.3666 16.2801 10.7495C15.997 8.71157 15.8555 7.69258 15.3663 6.92578C14.9353 6.25007 14.3185 5.71303 13.5899 5.37903C13.2315 5.21472 12.8351 5.12164 12.3334 5.06891" stroke="white" stroke-width="1.4" stroke-linecap="round"/>
</g>
</svg>
