<svg width="20" height="20" viewBox="0 0 20 20" fill="none" xmlns="http://www.w3.org/2000/svg">
<g id="Bag 8">
<path id="Vector" d="M14.1667 4.99992C14.1667 2.69873 12.3012 0.833252 10 0.833252C7.69882 0.833252 5.83334 2.69873 5.83334 4.99992M14.1667 4.99992H15.2573C16.9954 4.99992 17.8644 4.99992 18.3613 5.55505C18.8581 6.11018 18.7622 6.97391 18.5702 8.70136L18.3237 10.9202C17.9319 14.4463 17.736 16.2093 16.5495 17.2713C15.363 18.3333 13.5753 18.3333 10 18.3333C6.42468 18.3333 4.63701 18.3333 3.45051 17.2713C2.26401 16.2093 2.06812 14.4463 1.67633 10.9202L1.4298 8.70136C1.23786 6.97391 1.14189 6.11018 1.63875 5.55505C2.13562 4.99992 3.00466 4.99992 4.74274 4.99992H5.83334M14.1667 4.99992H5.83334M15 8.33325H5.00001" stroke="#888888" stroke-width="1.4" stroke-linecap="round"/>
</g>
</svg>
