<svg width="28" height="28" viewBox="0 0 28 28" fill="none" xmlns="http://www.w3.org/2000/svg">
<path d="M24.0625 16.1875V22.3125C23.5984 22.3125 23.1533 22.4969 22.8251 22.8251C22.4969 23.1533 22.3125 23.5984 22.3125 24.0625H5.6875C5.6875 23.5984 5.50313 23.1533 5.17494 22.8251C4.84675 22.4969 4.40163 22.3125 3.9375 22.3125V16.1875C4.40163 16.1875 4.84675 16.0031 5.17494 15.6749C5.50313 15.3467 5.6875 14.9016 5.6875 14.4375H22.3125C22.3125 14.9016 22.4969 15.3467 22.8251 15.6749C23.1533 16.0031 23.5984 16.1875 24.0625 16.1875Z" fill="#6AC682"/>
<path d="M24.3075 12.7532C24.1569 12.7091 24.0007 12.687 23.8438 12.6876H22.2513L20.8119 10.1938L20.09 8.94256C19.7197 9.15669 19.2837 9.22774 18.8645 9.14229C18.4453 9.05685 18.072 8.82082 17.815 8.47881C17.7716 8.42176 17.7321 8.36183 17.6969 8.29944L10.0975 12.6876H6.5975L16.2225 7.12694L17.9725 6.11631L18.3313 5.91069C18.5312 5.79516 18.7521 5.72036 18.9812 5.69061C19.2102 5.66085 19.4429 5.67673 19.6658 5.73733C19.8886 5.79793 20.0973 5.90205 20.2798 6.04369C20.4622 6.18532 20.6148 6.36167 20.7288 6.56256L24.3075 12.7532Z" fill="#50B267"/>
<path d="M22.2513 12.6875H10.0975L17.6969 8.3125C17.7321 8.3749 17.7716 8.43483 17.815 8.49187C18.072 8.83388 18.4453 9.06991 18.8645 9.15536C19.2837 9.24081 19.7197 9.16975 20.09 8.95562L20.8119 10.2069L22.2513 12.6875Z" fill="#6AC682"/>
<path d="M17.9815 6.12499L16.2315 7.13562L12.6615 5.07499C12.5468 5.27457 12.3939 5.44957 12.2115 5.58995C12.029 5.73033 11.8207 5.83334 11.5984 5.89308C11.3761 5.95282 11.1442 5.96812 10.916 5.9381C10.6877 5.90807 10.4677 5.83332 10.2684 5.71812L6.23902 12.6875H4.21777L9.62527 3.31624C9.85763 2.91509 10.2397 2.62252 10.6875 2.50276C11.1354 2.38301 11.6125 2.44585 12.014 2.67749L17.9815 6.12499Z" fill="#50B267"/>
<path d="M14 22.3125C15.4497 22.3125 16.625 20.9414 16.625 19.25C16.625 17.5586 15.4497 16.1875 14 16.1875C12.5503 16.1875 11.375 17.5586 11.375 19.25C11.375 20.9414 12.5503 22.3125 14 22.3125Z" fill="#A3E8B0"/>
<path d="M24.5263 12.7531C24.3756 12.709 24.2194 12.6869 24.0625 12.6875H3.9375C3.47337 12.6875 3.02825 12.8719 2.70006 13.2001C2.37187 13.5283 2.1875 13.9734 2.1875 14.4375V24.0625C2.18817 24.4453 2.31433 24.8173 2.54665 25.1216C2.77898 25.4258 3.10464 25.6454 3.47375 25.7469C3.62436 25.791 3.78056 25.8131 3.9375 25.8125H24.0625C24.5266 25.8125 24.9717 25.6281 25.2999 25.2999C25.6281 24.9718 25.8125 24.5266 25.8125 24.0625V14.4375C25.8118 14.0547 25.6857 13.6827 25.4533 13.3785C25.221 13.0742 24.8954 12.8546 24.5263 12.7531ZM22.3125 24.0625H5.6875C5.6875 23.5984 5.50313 23.1533 5.17494 22.8251C4.84675 22.4969 4.40163 22.3125 3.9375 22.3125V16.1875C4.40163 16.1875 4.84675 16.0031 5.17494 15.6749C5.50313 15.3468 5.6875 14.9016 5.6875 14.4375H22.3125C22.3125 14.9016 22.4969 15.3468 22.8251 15.6749C23.1533 16.0031 23.5984 16.1875 24.0625 16.1875V22.3125C23.5984 22.3125 23.1533 22.4969 22.8251 22.8251C22.4969 23.1533 22.3125 23.5984 22.3125 24.0625Z" fill="#50B267"/>
<path d="M16.2308 7.12691L6.60141 12.6875H6.23828L10.2677 5.70941C10.4669 5.82461 10.687 5.89937 10.9152 5.92939C11.1434 5.95941 11.3754 5.94412 11.5977 5.88438C11.82 5.82463 12.0283 5.72162 12.2107 5.58124C12.3931 5.44086 12.5461 5.26587 12.6608 5.06628L16.2308 7.12691Z" fill="#6AC682"/>
<path d="M24.526 13.1906C24.4854 13.197 24.4441 13.197 24.4035 13.1906C24.2933 13.1531 24.1785 13.131 24.0622 13.125H22.4697C22.3926 13.1253 22.3168 13.1052 22.25 13.0668C22.1831 13.0284 22.1276 12.973 22.0891 12.9063L20.1247 9.5025C19.7175 9.63855 19.2793 9.65178 18.8647 9.54053C18.45 9.42928 18.0773 9.19848 17.7929 8.87688L16.7604 9.47188C16.6594 9.52989 16.5395 9.54543 16.4271 9.51508C16.3147 9.48472 16.219 9.41095 16.161 9.31C16.103 9.20906 16.0874 9.08919 16.1178 8.97679C16.1481 8.86439 16.2219 8.76864 16.3229 8.71063L17.6966 7.91875C17.7465 7.88983 17.8017 7.87106 17.8589 7.86355C17.9161 7.85603 17.9743 7.8599 18.03 7.87495C18.0857 7.89 18.1379 7.91592 18.1835 7.95121C18.2292 7.98651 18.2674 8.0305 18.296 8.08063C18.3211 8.12598 18.3488 8.16981 18.3791 8.21188C18.5717 8.46986 18.8524 8.64806 19.1678 8.71259C19.4832 8.77713 19.8113 8.72349 20.0897 8.56188C20.1397 8.53295 20.1948 8.51419 20.252 8.50667C20.3093 8.49915 20.3674 8.50303 20.4231 8.51808C20.4788 8.53312 20.531 8.55904 20.5767 8.59434C20.6223 8.62964 20.6605 8.67362 20.6891 8.72375L22.7235 12.25H23.7297L20.5622 6.76813C20.3876 6.46822 20.1013 6.24969 19.766 6.16032C19.4306 6.07095 19.0736 6.11803 18.7729 6.29125L16.6685 7.5075L8.45223 12.25H10.2022L15.1985 9.36688C15.2994 9.30886 15.4193 9.29332 15.5317 9.32368C15.6441 9.35404 15.7398 9.42781 15.7979 9.52875C15.8559 9.6297 15.8714 9.74956 15.841 9.86197C15.8107 9.97437 15.7369 10.0701 15.636 10.1281L10.5347 13.0681C10.4676 13.1048 10.3925 13.1244 10.316 13.125H6.81598C6.71721 13.1284 6.6202 13.0982 6.54076 13.0394C6.46131 12.9807 6.40411 12.8967 6.37848 12.8013C6.35316 12.7077 6.35961 12.6084 6.39683 12.5189C6.43405 12.4295 6.49991 12.3549 6.5841 12.3069L18.3397 5.53C18.8421 5.23994 19.4392 5.16133 19.9996 5.31147C20.56 5.46162 21.0378 5.82822 21.3279 6.33063L24.9066 12.5344C24.9505 12.6102 24.9706 12.6974 24.9644 12.7848C24.9581 12.8721 24.9258 12.9556 24.8716 13.0244C24.8304 13.0765 24.7779 13.1186 24.718 13.1474C24.6581 13.1762 24.5924 13.191 24.526 13.1906Z" fill="#473568"/>
<path d="M12.6872 13.125H10.316C10.2172 13.1284 10.1202 13.0982 10.0408 13.0394C9.96131 12.9806 9.90411 12.8967 9.87848 12.8012C9.85316 12.7077 9.85961 12.6084 9.89683 12.5189C9.93405 12.4294 9.99991 12.3548 10.0841 12.3069L15.181 9.36685C15.2819 9.30884 15.4018 9.2933 15.5142 9.32366C15.6266 9.35401 15.7223 9.42778 15.7804 9.52873C15.8384 9.62968 15.8539 9.74954 15.8235 9.86194C15.7932 9.97435 15.7194 10.0701 15.6185 10.1281L11.9479 12.25H12.6872C12.8033 12.25 12.9145 12.2961 12.9966 12.3781C13.0786 12.4602 13.1247 12.5714 13.1247 12.6875C13.1247 12.8035 13.0786 12.9148 12.9966 12.9968C12.9145 13.0789 12.8033 13.125 12.6872 13.125Z" fill="#473568"/>
<path d="M22.47 13.125H14.4375C14.3215 13.125 14.2102 13.0789 14.1281 12.9969C14.0461 12.9148 14 12.8035 14 12.6875C14 12.5715 14.0461 12.4602 14.1281 12.3781C14.2102 12.2961 14.3215 12.25 14.4375 12.25H21.7131L20.125 9.50249C19.7178 9.63854 19.2796 9.65177 18.8649 9.54052C18.4503 9.42927 18.0775 9.19847 17.7931 8.87687L16.7606 9.47187C16.6597 9.52988 16.5398 9.54542 16.4274 9.51506C16.315 9.48471 16.2193 9.41094 16.1612 9.30999C16.1032 9.20904 16.0877 9.08918 16.1181 8.97678C16.1484 8.86437 16.2222 8.76863 16.3231 8.71062L17.6969 7.91874C17.7468 7.88981 17.802 7.87105 17.8592 7.86353C17.9164 7.85602 17.9745 7.85989 18.0303 7.87494C18.086 7.88998 18.1381 7.9159 18.1838 7.9512C18.2295 7.9865 18.2677 8.03048 18.2962 8.08062C18.3213 8.12597 18.3491 8.1698 18.3794 8.21187C18.572 8.46985 18.8526 8.64805 19.168 8.71258C19.4834 8.77712 19.8116 8.72348 20.09 8.56187C20.1399 8.53294 20.1951 8.51418 20.2523 8.50666C20.3095 8.49914 20.3677 8.50302 20.4234 8.51806C20.4791 8.53311 20.5313 8.55903 20.5769 8.59433C20.6226 8.62963 20.6608 8.67361 20.6894 8.72374L22.8506 12.4687C22.889 12.5353 22.9092 12.6107 22.9092 12.6875C22.9092 12.7643 22.889 12.8397 22.8506 12.9062C22.8121 12.973 22.7566 13.0284 22.6897 13.0668C22.6229 13.1052 22.5471 13.1253 22.47 13.125ZM6.4575 13.125H4.43625C4.35916 13.1253 4.28335 13.1052 4.21651 13.0668C4.14967 13.0284 4.09417 12.973 4.05562 12.9062C4.01722 12.8397 3.99701 12.7643 3.99701 12.6875C3.99701 12.6107 4.01722 12.5353 4.05562 12.4687L6.64125 7.98874C6.66998 7.93876 6.70827 7.89492 6.75393 7.85973C6.7996 7.82455 6.85175 7.7987 6.90741 7.78367C6.96307 7.76864 7.02114 7.76472 7.07831 7.77213C7.13549 7.77954 7.19064 7.79814 7.24062 7.82687C7.29061 7.85559 7.33444 7.89388 7.36963 7.93955C7.40482 7.98522 7.43066 8.03737 7.4457 8.09303C7.46073 8.14869 7.46465 8.20676 7.45724 8.26393C7.44983 8.3211 7.43123 8.37626 7.4025 8.42624L5.19312 12.25H6.20375L10.1062 5.49062C10.1348 5.44048 10.173 5.3965 10.2187 5.3612C10.2644 5.3259 10.3165 5.29998 10.3722 5.28494C10.428 5.26989 10.4861 5.26602 10.5433 5.27353C10.6005 5.28105 10.6557 5.29981 10.7056 5.32874C10.8552 5.4157 11.0204 5.47224 11.1919 5.49512C11.3634 5.51799 11.5377 5.50674 11.7048 5.46202C11.8719 5.41729 12.0285 5.33998 12.1656 5.23451C12.3027 5.12905 12.4176 4.99752 12.5037 4.84749C12.5615 4.74742 12.6564 4.67424 12.7679 4.64391C12.8794 4.61359 12.9983 4.62858 13.0987 4.68562L16.45 6.62374L17.325 6.11624L12.0181 3.06249C11.7174 2.88927 11.3603 2.84219 11.025 2.93156C10.6897 3.02092 10.4034 3.23946 10.2287 3.53937L8.2775 6.91249C8.24877 6.96248 8.21048 7.00631 8.16481 7.0415C8.11914 7.07669 8.06699 7.10253 8.01134 7.11756C7.95568 7.1326 7.89761 7.13652 7.84043 7.12911C7.78326 7.12169 7.72811 7.10309 7.67812 7.07437C7.57718 7.01635 7.50341 6.92061 7.47305 6.8082C7.45802 6.75255 7.4541 6.69447 7.46151 6.6373C7.46892 6.58013 7.48752 6.52498 7.51625 6.47499L9.4675 3.09749C9.75832 2.59582 10.2364 2.23015 10.7967 2.08084C11.3571 1.93154 11.9537 2.01081 12.4556 2.30124L18.4187 5.73562C18.4861 5.77377 18.5421 5.82911 18.581 5.89598C18.62 5.96284 18.6405 6.03885 18.6405 6.11624C18.6405 6.19363 18.62 6.26964 18.581 6.33651C18.5421 6.40337 18.4861 6.45871 18.4187 6.49687L16.6687 7.50749C16.6022 7.54589 16.5268 7.56611 16.45 7.56611C16.3732 7.56611 16.2978 7.54589 16.2312 7.50749L13.0025 5.63937C12.7186 5.96173 12.3461 6.19337 11.9314 6.30541C11.5167 6.41744 11.0782 6.40491 10.6706 6.26937L6.83812 12.9062C6.79958 12.973 6.74407 13.0284 6.67723 13.0668C6.61039 13.1052 6.53459 13.1253 6.4575 13.125ZM14 22.75C12.3112 22.75 10.9375 21.1794 10.9375 19.25C10.9375 17.3206 12.3112 15.75 14 15.75C15.5181 15.75 16.8219 17.0625 17.0275 18.76C17.0344 18.8174 17.0299 18.8757 17.0143 18.9314C16.9987 18.9871 16.9722 19.0392 16.9365 19.0847C16.9007 19.1302 16.8564 19.1682 16.8059 19.1966C16.7555 19.225 16.7 19.2431 16.6425 19.25C16.585 19.2569 16.5268 19.2524 16.4711 19.2368C16.4154 19.2212 16.3633 19.1947 16.3178 19.159C16.2723 19.1232 16.2342 19.0789 16.2059 19.0284C16.1775 18.978 16.1594 18.9224 16.1525 18.865C16.0037 17.5875 15.0762 16.625 14 16.625C12.7925 16.625 11.8125 17.8019 11.8125 19.25C11.8125 20.6981 12.7925 21.875 14 21.875C14.4434 21.8544 14.87 21.6994 15.2232 21.4306C15.5764 21.1618 15.8395 20.7919 15.9775 20.37C16.0249 20.2703 16.1082 20.1921 16.2108 20.1513C16.3134 20.1104 16.4276 20.1099 16.5306 20.1498C16.6336 20.1896 16.7177 20.2669 16.766 20.3662C16.8143 20.4655 16.8234 20.5793 16.7912 20.685C16.5897 21.2713 16.2149 21.7826 15.7165 22.1513C15.2182 22.52 14.6196 22.7288 14 22.75Z" fill="#473568"/>
<path d="M24.0625 26.2501H3.9375C3.73904 26.2516 3.54146 26.2236 3.35125 26.1669C2.89127 26.039 2.48578 25.764 2.19666 25.3841C1.90754 25.0041 1.75068 24.54 1.75 24.0626V14.4376C1.75 13.8574 1.98047 13.301 2.3907 12.8908C2.80094 12.4805 3.35734 12.2501 3.9375 12.2501H12.6875C12.8035 12.2501 12.9148 12.2962 12.9969 12.3782C13.0789 12.4602 13.125 12.5715 13.125 12.6876C13.125 12.8036 13.0789 12.9149 12.9969 12.9969C12.9148 13.079 12.8035 13.1251 12.6875 13.1251H3.9375C3.5894 13.1251 3.25556 13.2633 3.00942 13.5095C2.76328 13.7556 2.625 14.0895 2.625 14.4376V24.0626C2.62609 24.3488 2.72072 24.6269 2.89448 24.8543C3.06825 25.0818 3.31162 25.2462 3.5875 25.3226C3.70097 25.3571 3.81889 25.3748 3.9375 25.3751H24.0625C24.4106 25.3751 24.7444 25.2368 24.9906 24.9906C25.2367 24.7445 25.375 24.4107 25.375 24.0626V14.4376C25.3739 14.1513 25.2793 13.8733 25.1055 13.6458C24.9317 13.4183 24.6884 13.2539 24.4125 13.1776C24.299 13.143 24.1811 13.1253 24.0625 13.1251H14.4375C14.3215 13.1251 14.2102 13.079 14.1281 12.9969C14.0461 12.9149 14 12.8036 14 12.6876C14 12.5715 14.0461 12.4602 14.1281 12.3782C14.2102 12.2962 14.3215 12.2501 14.4375 12.2501H24.0625C24.261 12.2485 24.4585 12.2765 24.6488 12.3332C25.1087 12.4611 25.5142 12.7361 25.8033 13.116C26.0925 13.496 26.2493 13.9601 26.25 14.4376V24.0626C26.25 24.6427 26.0195 25.1991 25.6093 25.6094C25.1991 26.0196 24.6427 26.2501 24.0625 26.2501ZM22.3125 24.5001H9.1875C9.07147 24.5001 8.96019 24.454 8.87814 24.3719C8.79609 24.2899 8.75 24.1786 8.75 24.0626C8.75 23.9465 8.79609 23.8352 8.87814 23.7532C8.96019 23.6712 9.07147 23.6251 9.1875 23.6251H21.9187C22.0045 23.2047 22.212 22.8188 22.5153 22.5154C22.8187 22.212 23.2046 22.0045 23.625 21.9188V16.5813C23.2046 16.4956 22.8187 16.2881 22.5153 15.9847C22.212 15.6813 22.0045 15.2955 21.9187 14.8751H6.08125C5.99551 15.2955 5.78805 15.6813 5.48467 15.9847C5.18129 16.2881 4.79539 16.4956 4.375 16.5813V21.9188C4.79539 22.0045 5.18129 22.212 5.48467 22.5154C5.78805 22.8188 5.99551 23.2047 6.08125 23.6251H7.4375C7.55353 23.6251 7.66481 23.6712 7.74686 23.7532C7.82891 23.8352 7.875 23.9465 7.875 24.0626C7.875 24.1786 7.82891 24.2899 7.74686 24.3719C7.66481 24.454 7.55353 24.5001 7.4375 24.5001H5.6875C5.57147 24.5001 5.46019 24.454 5.37814 24.3719C5.29609 24.2899 5.25 24.1786 5.25 24.0626C5.25 23.7145 5.11172 23.3806 4.86558 23.1345C4.61944 22.8883 4.2856 22.7501 3.9375 22.7501C3.82147 22.7501 3.71019 22.704 3.62814 22.6219C3.54609 22.5399 3.5 22.4286 3.5 22.3126V16.1876C3.5 16.0715 3.54609 15.9602 3.62814 15.8782C3.71019 15.7962 3.82147 15.7501 3.9375 15.7501C4.2856 15.7501 4.61944 15.6118 4.86558 15.3656C5.11172 15.1195 5.25 14.7857 5.25 14.4376C5.25 14.3215 5.29609 14.2102 5.37814 14.1282C5.46019 14.0462 5.57147 14.0001 5.6875 14.0001H22.3125C22.4285 14.0001 22.5398 14.0462 22.6219 14.1282C22.7039 14.2102 22.75 14.3215 22.75 14.4376C22.75 14.7857 22.8883 15.1195 23.1344 15.3656C23.3806 15.6118 23.7144 15.7501 24.0625 15.7501C24.1785 15.7501 24.2898 15.7962 24.3719 15.8782C24.4539 15.9602 24.5 16.0715 24.5 16.1876V22.3126C24.5 22.4286 24.4539 22.5399 24.3719 22.6219C24.2898 22.704 24.1785 22.7501 24.0625 22.7501C23.7144 22.7501 23.3806 22.8883 23.1344 23.1345C22.8883 23.3806 22.75 23.7145 22.75 24.0626C22.75 24.1786 22.7039 24.2899 22.6219 24.3719C22.5398 24.454 22.4285 24.5001 22.3125 24.5001Z" fill="#473568"/>
<path d="M22.3125 24.5H9.1875C9.07147 24.5 8.96019 24.4539 8.87814 24.3719C8.79609 24.2898 8.75 24.1785 8.75 24.0625C8.75 23.9465 8.79609 23.8352 8.87814 23.7531C8.96019 23.6711 9.07147 23.625 9.1875 23.625H21.9187C22.0045 23.2046 22.212 22.8187 22.5153 22.5153C22.8187 22.212 23.2046 22.0045 23.625 21.9187V16.5813C23.2046 16.4955 22.8187 16.288 22.5153 15.9847C22.212 15.6813 22.0045 15.2954 21.9187 14.875H6.08125C5.99551 15.2954 5.78805 15.6813 5.48467 15.9847C5.18129 16.288 4.79539 16.4955 4.375 16.5813V21.9187C4.79539 22.0045 5.18129 22.212 5.48467 22.5153C5.78805 22.8187 5.99551 23.2046 6.08125 23.625H7.4375C7.55353 23.625 7.66481 23.6711 7.74686 23.7531C7.82891 23.8352 7.875 23.9465 7.875 24.0625C7.875 24.1785 7.82891 24.2898 7.74686 24.3719C7.66481 24.4539 7.55353 24.5 7.4375 24.5H5.6875C5.57147 24.5 5.46019 24.4539 5.37814 24.3719C5.29609 24.2898 5.25 24.1785 5.25 24.0625C5.25 23.7144 5.11172 23.3806 4.86558 23.1344C4.61944 22.8883 4.2856 22.75 3.9375 22.75C3.82147 22.75 3.71019 22.7039 3.62814 22.6219C3.54609 22.5398 3.5 22.4285 3.5 22.3125V16.1875C3.5 16.0715 3.54609 15.9602 3.62814 15.8781C3.71019 15.7961 3.82147 15.75 3.9375 15.75C4.2856 15.75 4.61944 15.6117 4.86558 15.3656C5.11172 15.1194 5.25 14.7856 5.25 14.4375C5.25 14.3215 5.29609 14.2102 5.37814 14.1281C5.46019 14.0461 5.57147 14 5.6875 14H22.3125C22.4285 14 22.5398 14.0461 22.6219 14.1281C22.7039 14.2102 22.75 14.3215 22.75 14.4375C22.75 14.7856 22.8883 15.1194 23.1344 15.3656C23.3806 15.6117 23.7144 15.75 24.0625 15.75C24.1785 15.75 24.2898 15.7961 24.3719 15.8781C24.4539 15.9602 24.5 16.0715 24.5 16.1875V22.3125C24.5 22.4285 24.4539 22.5398 24.3719 22.6219C24.2898 22.7039 24.1785 22.75 24.0625 22.75C23.7144 22.75 23.3806 22.8883 23.1344 23.1344C22.8883 23.3806 22.75 23.7144 22.75 24.0625C22.75 24.1785 22.7039 24.2898 22.6219 24.3719C22.5398 24.4539 22.4285 24.5 22.3125 24.5Z" fill="#473568"/>
</svg>
