<svg width="24" height="24" viewBox="0 0 24 24" fill="none" xmlns="http://www.w3.org/2000/svg">
<g id="fabric" clip-path="url(#clip0_1_5623)">
<g id="Group">
<path id="Vector" d="M9 4.125C9.62137 4.125 10.125 4.62863 10.125 5.25C10.125 5.87137 9.62137 6.375 9 6.375V4.125Z" fill="#F9BA48"/>
<path id="Vector_2" d="M13.5 6.375C14.1213 6.375 14.625 5.87132 14.625 5.25C14.625 4.62868 14.1213 4.125 13.5 4.125C12.8787 4.125 12.375 4.62868 12.375 5.25C12.375 5.87132 12.8787 6.375 13.5 6.375Z" fill="#F9BA48"/>
<path id="Vector_3" d="M18 6.375C18.6213 6.375 19.125 5.87132 19.125 5.25C19.125 4.62868 18.6213 4.125 18 4.125C17.3787 4.125 16.875 4.62868 16.875 5.25C16.875 5.87132 17.3787 6.375 18 6.375Z" fill="#F9BA48"/>
<path id="Vector_4" d="M22.5 6.375C21.8786 6.375 21.375 5.87137 21.375 5.25C21.375 4.62863 21.8786 4.125 22.5 4.125V6.375Z" fill="#F9BA48"/>
<path id="Vector_5" d="M11.25 9.75C11.8713 9.75 12.375 9.24632 12.375 8.625C12.375 8.00368 11.8713 7.5 11.25 7.5C10.6287 7.5 10.125 8.00368 10.125 8.625C10.125 9.24632 10.6287 9.75 11.25 9.75Z" fill="#F9BA48"/>
<path id="Vector_6" d="M3.375 6.375C3.99632 6.375 4.5 5.87132 4.5 5.25C4.5 4.62868 3.99632 4.125 3.375 4.125C2.75368 4.125 2.25 4.62868 2.25 5.25C2.25 5.87132 2.75368 6.375 3.375 6.375Z" fill="#F9BA48"/>
<path id="Vector_7" d="M7.875 6.375C8.49632 6.375 9 5.87132 9 5.25C9 4.62868 8.49632 4.125 7.875 4.125C7.25368 4.125 6.75 4.62868 6.75 5.25C6.75 5.87132 7.25368 6.375 7.875 6.375Z" fill="#F9BA48"/>
<path id="Vector_8" d="M5.625 9.75C6.24632 9.75 6.75 9.24632 6.75 8.625C6.75 8.00368 6.24632 7.5 5.625 7.5C5.00368 7.5 4.5 8.00368 4.5 8.625C4.5 9.24632 5.00368 9.75 5.625 9.75Z" fill="#F9BA48"/>
<path id="Vector_9" d="M1.125 7.5C1.74637 7.5 2.25 8.00363 2.25 8.625C2.25 9.24637 1.74637 9.75 1.125 9.75V7.5Z" fill="#F9BA48"/>
<path id="Vector_10" d="M3.375 13.125C3.99632 13.125 4.5 12.6213 4.5 12C4.5 11.3787 3.99632 10.875 3.375 10.875C2.75368 10.875 2.25 11.3787 2.25 12C2.25 12.6213 2.75368 13.125 3.375 13.125Z" fill="#F9BA48"/>
<path id="Vector_11" d="M7.875 13.125C8.49632 13.125 9 12.6213 9 12C9 11.3787 8.49632 10.875 7.875 10.875C7.25368 10.875 6.75 11.3787 6.75 12C6.75 12.6213 7.25368 13.125 7.875 13.125Z" fill="#F9BA48"/>
<path id="Vector_12" d="M5.625 16.5C6.24632 16.5 6.75 15.9963 6.75 15.375C6.75 14.7537 6.24632 14.25 5.625 14.25C5.00368 14.25 4.5 14.7537 4.5 15.375C4.5 15.9963 5.00368 16.5 5.625 16.5Z" fill="#F9BA48"/>
<path id="Vector_13" d="M1.125 14.25C1.74637 14.25 2.25 14.7536 2.25 15.375C2.25 15.9964 1.74637 16.5 1.125 16.5V14.25Z" fill="#F9BA48"/>
<path id="Vector_14" d="M3.375 19.875C3.99632 19.875 4.5 19.3713 4.5 18.75C4.5 18.1287 3.99632 17.625 3.375 17.625C2.75368 17.625 2.25 18.1287 2.25 18.75C2.25 19.3713 2.75368 19.875 3.375 19.875Z" fill="#F9BA48"/>
<path id="Vector_15" d="M7.875 19.875C8.49632 19.875 9 19.3713 9 18.75C9 18.1287 8.49632 17.625 7.875 17.625C7.25368 17.625 6.75 18.1287 6.75 18.75C6.75 19.3713 7.25368 19.875 7.875 19.875Z" fill="#F9BA48"/>
<path id="Vector_16" d="M15.75 9.75C16.3713 9.75 16.875 9.24632 16.875 8.625C16.875 8.00368 16.3713 7.5 15.75 7.5C15.1287 7.5 14.625 8.00368 14.625 8.625C14.625 9.24632 15.1287 9.75 15.75 9.75Z" fill="#F9BA48"/>
<path id="Vector_17" d="M20.25 9.75C20.8713 9.75 21.375 9.24632 21.375 8.625C21.375 8.00368 20.8713 7.5 20.25 7.5C19.6287 7.5 19.125 8.00368 19.125 8.625C19.125 9.24632 19.6287 9.75 20.25 9.75Z" fill="#F9BA48"/>
<path id="Vector_18" d="M9 10.875C9.62137 10.875 10.125 11.3786 10.125 12C10.125 12.6214 9.62137 13.125 9 13.125V10.875Z" fill="#F9BA48"/>
<path id="Vector_19" d="M13.5 13.125C14.1213 13.125 14.625 12.6213 14.625 12C14.625 11.3787 14.1213 10.875 13.5 10.875C12.8787 10.875 12.375 11.3787 12.375 12C12.375 12.6213 12.8787 13.125 13.5 13.125Z" fill="#F9BA48"/>
<path id="Vector_20" d="M18 13.125C18.6213 13.125 19.125 12.6213 19.125 12C19.125 11.3787 18.6213 10.875 18 10.875C17.3787 10.875 16.875 11.3787 16.875 12C16.875 12.6213 17.3787 13.125 18 13.125Z" fill="#F9BA48"/>
<path id="Vector_21" d="M22.5 13.125C21.8786 13.125 21.375 12.6214 21.375 12C21.375 11.3786 21.8786 10.875 22.5 10.875V13.125Z" fill="#F9BA48"/>
<path id="Vector_22" d="M11.25 16.5C11.8713 16.5 12.375 15.9963 12.375 15.375C12.375 14.7537 11.8713 14.25 11.25 14.25C10.6287 14.25 10.125 14.7537 10.125 15.375C10.125 15.9963 10.6287 16.5 11.25 16.5Z" fill="#F9BA48"/>
<path id="Vector_23" d="M15.75 16.5C16.3713 16.5 16.875 15.9963 16.875 15.375C16.875 14.7537 16.3713 14.25 15.75 14.25C15.1287 14.25 14.625 14.7537 14.625 15.375C14.625 15.9963 15.1287 16.5 15.75 16.5Z" fill="#F9BA48"/>
<path id="Vector_24" d="M20.25 16.5C20.8713 16.5 21.375 15.9963 21.375 15.375C21.375 14.7537 20.8713 14.25 20.25 14.25C19.6287 14.25 19.125 14.7537 19.125 15.375C19.125 15.9963 19.6287 16.5 20.25 16.5Z" fill="#F9BA48"/>
<path id="Vector_25" d="M9 17.625C9.62137 17.625 10.125 18.1286 10.125 18.75C10.125 19.3714 9.62137 19.875 9 19.875V17.625Z" fill="#F9BA48"/>
<path id="Vector_26" d="M13.5 19.875C14.1213 19.875 14.625 19.3713 14.625 18.75C14.625 18.1287 14.1213 17.625 13.5 17.625C12.8787 17.625 12.375 18.1287 12.375 18.75C12.375 19.3713 12.8787 19.875 13.5 19.875Z" fill="#F9BA48"/>
<path id="Vector_27" d="M18 19.875C18.6213 19.875 19.125 19.3713 19.125 18.75C19.125 18.1287 18.6213 17.625 18 17.625C17.3787 17.625 16.875 18.1287 16.875 18.75C16.875 19.3713 17.3787 19.875 18 19.875Z" fill="#F9BA48"/>
<path id="Vector_28" d="M22.5 19.875C21.8786 19.875 21.375 19.3714 21.375 18.75C21.375 18.1286 21.8786 17.625 22.5 17.625V19.875Z" fill="#F9BA48"/>
<path id="Vector_29" d="M23.625 3V2.25H22.875H22.5H9.375H9H7.875V0.375H1.875V2.25H0.375V21.75H1.875V23.625H7.875V21.75H9H9.375H22.5H22.875H23.625V21H22.875V19.875H23.625V19.125H22.875V18H23.625V17.25H22.875V16.125H23.625V15.375H22.875V14.25H23.625V13.5H22.875V12.375H23.625V11.625H22.875V10.5H23.625V9.75H22.875V8.625H23.625V7.875H22.875V6.75H23.625V6H22.875V4.875H23.625V4.125H22.875V3H23.625ZM2.625 1.125H7.125V2.25H2.625V1.125ZM7.125 22.875H2.625V21.75H7.125V22.875ZM8.625 21H1.125V3H8.625V21ZM22.125 21H9.375V3H22.125V21Z" fill="#333333"/>
</g>
</g>
<defs>
<clipPath id="clip0_1_5623">
<rect width="24" height="24" fill="white"/>
</clipPath>
</defs>
</svg>
