<svg width="16" height="20" viewBox="0 0 16 20" fill="none" xmlns="http://www.w3.org/2000/svg">
<g id="Delete 2">
<path id="Vector" d="M13.431 10.6496L14.1243 10.7461L14.1243 10.7461L13.431 10.6496ZM13.2124 12.2204L13.9057 12.3169L13.9057 12.3169L13.2124 12.2204ZM2.78762 12.2204L3.48094 12.1239L3.48094 12.1239L2.78762 12.2204ZM2.56901 10.6496L1.87569 10.7461L1.87569 10.7461L2.56901 10.6496ZM5.65305 18.114L5.3809 18.7589L5.3809 18.7589L5.65305 18.114ZM3.39591 15.4669L4.05297 15.2255L4.05297 15.2255L3.39591 15.4669ZM12.6041 15.4669L13.2612 15.7083L13.2612 15.7083L12.6041 15.4669ZM10.347 18.114L10.0748 17.4691L10.0748 17.4691L10.347 18.114ZM2.86354 7.43378C2.82697 7.04891 2.48533 6.76656 2.10047 6.80313C1.7156 6.8397 1.43325 7.18133 1.46982 7.5662L2.86354 7.43378ZM14.5302 7.5662C14.5668 7.18134 14.2844 6.8397 13.8996 6.80313C13.5147 6.76656 13.173 7.04891 13.1365 7.43378L14.5302 7.5662ZM14.6667 6.53332C15.0533 6.53332 15.3667 6.21992 15.3667 5.83332C15.3667 5.44672 15.0533 5.13332 14.6667 5.13332V6.53332ZM1.33334 5.13332C0.946744 5.13332 0.633344 5.44672 0.633344 5.83332C0.633344 6.21992 0.946744 6.53332 1.33334 6.53332V5.13332ZM5.63334 15C5.63334 15.3866 5.94674 15.7 6.33334 15.7C6.71994 15.7 7.03334 15.3866 7.03334 15H5.63334ZM7.03334 8.33332C7.03334 7.94672 6.71994 7.63332 6.33334 7.63332C5.94674 7.63332 5.63334 7.94672 5.63334 8.33332H7.03334ZM8.96668 15C8.96668 15.3866 9.28008 15.7 9.66668 15.7C10.0533 15.7 10.3667 15.3866 10.3667 15H8.96668ZM10.3667 8.33332C10.3667 7.94672 10.0533 7.63332 9.66668 7.63332C9.28008 7.63332 8.96668 7.94672 8.96668 8.33332H10.3667ZM11.3333 5.83332V6.53332H12.0333V5.83332H11.3333ZM4.66668 5.83332H3.96668V6.53332H4.66668V5.83332ZM12.7377 10.5531L12.5191 12.1239L13.9057 12.3169L14.1243 10.7461L12.7377 10.5531ZM3.48094 12.1239L3.26233 10.5531L1.87569 10.7461L2.09431 12.3169L3.48094 12.1239ZM8.00001 17.6333C6.71897 17.6333 6.28302 17.6201 5.9252 17.4691L5.3809 18.7589C6.06248 19.0466 6.84473 19.0333 8.00001 19.0333V17.6333ZM2.09431 12.3169C2.32685 13.9879 2.45452 14.9344 2.73886 15.7083L4.05297 15.2255C3.83352 14.6282 3.72359 13.8675 3.48094 12.1239L2.09431 12.3169ZM5.9252 17.4691C5.18088 17.155 4.47794 16.3822 4.05297 15.2255L2.73886 15.7083C3.25597 17.1158 4.18152 18.2528 5.3809 18.7589L5.9252 17.4691ZM12.5191 12.1239C12.2764 13.8675 12.1665 14.6282 11.9471 15.2255L13.2612 15.7083C13.5455 14.9344 13.6732 13.9879 13.9057 12.3169L12.5191 12.1239ZM8.00001 19.0333C9.15529 19.0333 9.93754 19.0466 10.6191 18.7589L10.0748 17.4691C9.717 17.6201 9.28105 17.6333 8.00001 17.6333V19.0333ZM11.9471 15.2255C11.5221 16.3822 10.8191 17.155 10.0748 17.4691L10.6191 18.7589C11.8185 18.2528 12.7441 17.1158 13.2612 15.7083L11.9471 15.2255ZM3.26233 10.5531C3.07714 9.22237 2.9392 8.23008 2.86354 7.43378L1.46982 7.5662C1.54903 8.39989 1.69216 9.42726 1.87569 10.7461L3.26233 10.5531ZM14.1243 10.7461C14.3079 9.42725 14.451 8.39989 14.5302 7.5662L13.1365 7.43378C13.0608 8.23008 12.9229 9.22237 12.7377 10.5531L14.1243 10.7461ZM14.6667 5.13332H1.33334V6.53332H14.6667V5.13332ZM7.03334 15V8.33332H5.63334V15H7.03334ZM10.3667 15V8.33332H8.96668V15H10.3667ZM10.6333 4.99999V5.83332H12.0333V4.99999H10.6333ZM11.3333 5.13332H4.66668V6.53332H11.3333V5.13332ZM5.36668 5.83332V4.99999H3.96668V5.83332H5.36668ZM8.00001 2.36666C9.45436 2.36666 10.6333 3.54564 10.6333 4.99999H12.0333C12.0333 2.77244 10.2276 0.966657 8.00001 0.966657V2.36666ZM8.00001 0.966657C5.77246 0.966657 3.96668 2.77244 3.96668 4.99999H5.36668C5.36668 3.54564 6.54566 2.36666 8.00001 2.36666V0.966657Z" fill="#D52D2D"/>
</g>
</svg>
