<svg width="28" height="28" viewBox="0 0 28 28" fill="none" xmlns="http://www.w3.org/2000/svg">
<g id="delivery-van">
<path id="Vector" d="M25.0773 22.4827C25.0773 23.9512 23.8862 25.1423 22.4177 25.1423C20.9469 25.1423 19.7558 23.9512 19.7558 22.4827C19.7558 21.0141 20.9469 19.823 22.4177 19.823C23.8862 19.823 25.0773 21.0141 25.0773 22.4827Z" fill="white"/>
<path id="Vector_2" d="M25.0773 22.4827C25.0773 23.9512 23.8862 25.1423 22.4177 25.1423C20.9469 25.1423 19.7558 23.9512 19.7558 22.4827C19.7558 21.0141 20.9469 19.823 22.4177 19.823C23.8862 19.823 25.0773 21.0141 25.0773 22.4827Z" fill="#5B58CF"/>
<path id="Vector_3" d="M27.0865 14.56C27.2092 14.7481 27.2745 14.9678 27.2745 15.1923V20.8124C27.2745 20.9379 27.2377 21.0572 27.1704 21.1552C27.0939 21.2684 26.9807 21.3541 26.8461 21.3969C26.7879 21.4153 26.7267 21.4245 26.6624 21.4245H2.52707C2.46282 21.4245 2.40161 21.4153 2.34653 21.3969C2.15374 21.3388 2.00073 21.1858 1.94259 20.993C1.92423 20.9379 1.91504 20.8767 1.91504 20.8124V18.2608C1.91504 17.9411 2.17422 17.6819 2.49392 17.6819H16.3341C16.5472 17.6819 16.72 17.5091 16.72 17.296V9.82007C16.72 9.31154 17.1323 8.89929 17.6408 8.89929H22.7663C23.1572 8.89929 23.5216 9.09648 23.7355 9.42363L24.5968 10.7415L27.0865 14.56Z" fill="#5B58CF"/>
<path id="Vector_4" d="M25.8971 14.56C26.0197 14.7481 26.085 14.9678 26.085 15.1923V20.8124C26.085 20.9379 26.0483 21.0572 25.981 21.1552C25.9045 21.2684 25.7912 21.3541 25.6566 21.3969C25.5985 21.4153 25.5373 21.4245 25.473 21.4245H1.33761C1.27336 21.4245 1.21216 21.4153 1.15708 21.3969C0.964285 21.3388 0.811278 21.1858 0.753136 20.993C0.734776 20.9379 0.725586 20.8767 0.725586 20.8124V18.2608C0.725586 17.9411 0.984762 17.6819 1.30447 17.6819H15.1446C15.3578 17.6819 15.5306 17.5091 15.5306 17.296V9.82007C15.5306 9.31154 15.9428 8.89929 16.4513 8.89929H21.5769C21.9677 8.89929 22.3322 9.09648 22.546 9.42363L23.4074 10.7415L25.8971 14.56Z" fill="#A3BAF2"/>
<path id="Vector_5" d="M26.0452 16.0988V17.8433H25.7719C25.2902 17.8433 24.8996 17.4528 24.8996 16.971C24.8996 16.4893 25.2902 16.0988 25.7719 16.0988H26.0452Z" fill="#FAD014"/>
<path id="Vector_6" d="M24.7772 15.082L22.3837 11.4107L21.5418 10.1229H16.7549V15.082H24.7772Z" fill="white"/>
<path id="Vector_7" d="M0.725586 19.6367V20.8124C0.725586 20.8766 0.734776 20.9379 0.753132 20.9929C0.811285 21.1857 0.964287 21.3387 1.15708 21.3969C1.21216 21.4153 1.27337 21.4244 1.33761 21.4244H25.473C25.5373 21.4244 25.5985 21.4153 25.6566 21.3969C25.7912 21.354 25.9045 21.2684 25.981 21.1551C26.0483 21.0572 26.085 20.9379 26.085 20.8124V19.6367H0.725586Z" fill="#87E9F3"/>
<path id="Vector_8" d="M7.92405 22.4827C7.92405 23.9512 6.73293 25.1423 5.2644 25.1423C3.79365 25.1423 2.60254 23.9512 2.60254 22.4827C2.60254 21.0141 3.79365 19.823 5.2644 19.823C6.73293 19.823 7.92405 21.0141 7.92405 22.4827Z" fill="white"/>
<path id="Vector_9" d="M7.92405 22.4827C7.92405 23.9512 6.73293 25.1423 5.2644 25.1423C3.79365 25.1423 2.60254 23.9512 2.60254 22.4827C2.60254 21.0141 3.79365 19.823 5.2644 19.823C6.73293 19.823 7.92405 21.0141 7.92405 22.4827Z" fill="#E2F2FF"/>
<path id="Vector_10" d="M6.46123 22.4826C6.46123 23.1435 5.92517 23.6796 5.26427 23.6796C4.60237 23.6796 4.06631 23.1435 4.06631 22.4826C4.06631 21.8217 4.60237 21.2856 5.26427 21.2856C5.92517 21.2856 6.46123 21.8217 6.46123 22.4826Z" fill="#5B58CF"/>
<path id="Vector_11" d="M23.8332 22.4827C23.8332 23.9512 22.6421 25.1423 21.1736 25.1423C19.7028 25.1423 18.5117 23.9512 18.5117 22.4827C18.5117 21.0141 19.7028 19.823 21.1736 19.823C22.6421 19.823 23.8332 21.0141 23.8332 22.4827Z" fill="white"/>
<path id="Vector_12" d="M23.8332 22.4827C23.8332 23.9512 22.6421 25.1423 21.1736 25.1423C19.7028 25.1423 18.5117 23.9512 18.5117 22.4827C18.5117 21.0141 19.7028 19.823 21.1736 19.823C22.6421 19.823 23.8332 21.0141 23.8332 22.4827Z" fill="#E2F2FF"/>
<path id="Vector_13" d="M22.3696 22.4826C22.3696 23.1435 21.8335 23.6796 21.1726 23.6796C20.5107 23.6796 19.9747 23.1435 19.9747 22.4826C19.9747 21.8217 20.5107 21.2856 21.1726 21.2856C21.8335 21.2856 22.3696 21.8217 22.3696 22.4826Z" fill="#5B58CF"/>
<path id="Vector_14" d="M1.61035 8.80856V17.6803H14.6489V8.80856C14.6489 8.27571 14.2169 7.84375 13.6841 7.84375H2.57516C2.04231 7.84375 1.61035 8.27571 1.61035 8.80856Z" fill="white"/>
<path id="Vector_15" d="M1.61035 8.80856V17.6803H14.6489V8.80856C14.6489 8.27571 14.2169 7.84375 13.6841 7.84375H2.57516C2.04231 7.84375 1.61035 8.27571 1.61035 8.80856Z" fill="#FAD014"/>
<path id="Vector_16" d="M10.2834 7.84399V11.7457C10.2834 12.0586 9.93061 12.2415 9.67497 12.061L8.3226 11.1064C8.18747 11.011 8.00659 11.0123 7.87288 11.1097L6.58952 12.0441C6.33447 12.2298 5.97644 12.0477 5.97644 11.7321V7.84399H10.2834Z" fill="#FB961D"/>
<path id="Vector_17" d="M3.11774 3.3091H2.58241C2.46777 3.3091 2.375 3.21634 2.375 3.1017C2.375 2.98706 2.46777 2.89429 2.58241 2.89429H3.11774C3.23238 2.89429 3.32514 2.98706 3.32514 3.1017C3.32514 3.21634 3.23238 3.3091 3.11774 3.3091ZM4.03162 2.39542C3.91698 2.39542 3.82422 2.30265 3.82422 2.18801V1.65248C3.82422 1.53784 3.91698 1.44507 4.03162 1.44507C4.14627 1.44507 4.23903 1.53784 4.23903 1.65248V2.18801C4.23903 2.30265 4.14627 2.39542 4.03162 2.39542ZM4.03162 4.75832C3.91698 4.75832 3.82422 4.66555 3.82422 4.55091V4.01558C3.82422 3.90094 3.91698 3.80818 4.03162 3.80818C4.14627 3.80818 4.23903 3.90094 4.23903 4.01558V4.55091C4.23903 4.66556 4.14627 4.75832 4.03162 4.75832ZM5.48064 3.3091H4.94531C4.83067 3.3091 4.73791 3.21634 4.73791 3.1017C4.73791 2.98706 4.83067 2.89429 4.94531 2.89429H5.48064C5.59528 2.89429 5.68805 2.98706 5.68805 3.1017C5.68805 3.21634 5.59528 3.3091 5.48064 3.3091ZM4.67775 2.66298C4.62468 2.66298 4.57161 2.64272 4.5311 2.60222C4.45008 2.5212 4.45008 2.38995 4.5311 2.30893L4.90966 1.93037C4.99068 1.84935 5.12193 1.84935 5.20295 1.93037C5.28397 2.01139 5.28397 2.14264 5.20295 2.22366L4.82439 2.60222C4.78388 2.64273 4.73081 2.66298 4.67775 2.66298ZM3.00674 4.33399C2.95367 4.33399 2.90061 4.31373 2.8601 4.27322C2.77908 4.1922 2.77908 4.06095 2.8601 3.97994L3.23866 3.60117C3.31968 3.52015 3.45093 3.52015 3.53194 3.60117C3.61296 3.68219 3.61296 3.81344 3.53194 3.89446L3.15338 4.27322C3.11287 4.31373 3.05981 4.33399 3.00674 4.33399ZM5.05631 4.33399C5.00324 4.33399 4.95017 4.31373 4.90966 4.27322L4.5311 3.89446C4.45008 3.81344 4.45008 3.68219 4.5311 3.60117C4.61212 3.52016 4.74337 3.52015 4.82439 3.60117L5.20295 3.97994C5.28397 4.06095 5.28397 4.1922 5.20295 4.27322C5.16244 4.31373 5.10937 4.33399 5.05631 4.33399ZM3.3853 2.66298C3.33223 2.66298 3.27917 2.64272 3.23866 2.60222L2.8601 2.22366C2.77908 2.14264 2.77908 2.01139 2.8601 1.93037C2.94112 1.84935 3.07237 1.84935 3.15338 1.93037L3.53194 2.30893C3.61296 2.38995 3.61296 2.5212 3.53194 2.60222C3.49143 2.64273 3.43837 2.66298 3.3853 2.66298Z" fill="#FAD014"/>
<path id="Vector_18" d="M25.3307 3.66956H24.7907C24.6761 3.66956 24.5833 3.57679 24.5833 3.46215C24.5833 3.34751 24.6761 3.25475 24.7907 3.25475H25.3307C25.4453 3.25475 25.5381 3.34751 25.5381 3.46215C25.5381 3.57679 25.4453 3.66956 25.3307 3.66956ZM23.8325 2.66594C23.7178 2.66594 23.6251 2.57318 23.6251 2.45854V1.91834C23.6251 1.8037 23.7178 1.71094 23.8325 1.71094C23.9471 1.71094 24.0399 1.8037 24.0399 1.91834V2.45854C24.0399 2.57318 23.9471 2.66594 23.8325 2.66594ZM23.8325 5.04951C23.7178 5.04951 23.6251 4.95674 23.6251 4.8421V4.30191C23.6251 4.18727 23.7178 4.0945 23.8325 4.0945C23.9471 4.0945 24.0399 4.18727 24.0399 4.30191V4.8421C24.0399 4.95674 23.9471 5.04951 23.8325 5.04951ZM22.9107 3.58753H22.3705C22.2559 3.58753 22.1631 3.49476 22.1631 3.38012C22.1631 3.26548 22.2559 3.17271 22.3705 3.17271H22.9107C23.0253 3.17271 23.1181 3.26548 23.1181 3.38012C23.1181 3.49476 23.0253 3.58753 22.9107 3.58753ZM24.4843 2.93594C24.4312 2.93594 24.3781 2.91568 24.3376 2.87517C24.2566 2.79415 24.2566 2.6629 24.3376 2.58189L24.7194 2.19988C24.8004 2.11886 24.9317 2.11886 25.0127 2.19988C25.0937 2.2809 25.0937 2.41215 25.0127 2.49317L24.6309 2.87517C24.5904 2.91568 24.5373 2.93594 24.4843 2.93594ZM22.7987 4.62133C22.7456 4.62133 22.6925 4.60107 22.652 4.56056C22.571 4.47954 22.571 4.34829 22.652 4.26728L23.034 3.88527C23.1151 3.80425 23.2463 3.80425 23.3273 3.88527C23.4083 3.96629 23.4083 4.09754 23.3273 4.17856L22.9453 4.56056C22.9048 4.60107 22.8517 4.62133 22.7987 4.62133Z" fill="#ED7149"/>
<g id="Group">
<path id="Vector_19" d="M24.8658 4.62137C24.8127 4.62137 24.7597 4.60111 24.7192 4.5606L24.3374 4.1786C24.2563 4.09758 24.2563 3.96633 24.3374 3.88531C24.4184 3.80429 24.5496 3.80429 24.6306 3.88531L25.0124 4.26732C25.0935 4.34833 25.0935 4.47958 25.0124 4.5606C24.9719 4.60111 24.9189 4.62137 24.8658 4.62137ZM23.1804 2.93598C23.1273 2.93598 23.0743 2.91572 23.0338 2.87521L22.6518 2.49321C22.5707 2.41219 22.5707 2.28094 22.6518 2.19992C22.7328 2.11891 22.864 2.1189 22.9451 2.19992L23.3271 2.58193C23.4081 2.66295 23.4081 2.7942 23.3271 2.87521C23.2865 2.91572 23.2335 2.93598 23.1804 2.93598Z" fill="#ED7149"/>
</g>
<g id="Group_2">
<path id="Vector_20" d="M11.1623 6.67006C10.5581 6.67006 10.0666 6.17868 10.0666 5.57449C10.0666 4.96948 10.5581 4.47729 11.1623 4.47729C11.7673 4.47729 12.2595 4.96948 12.2595 5.57449C12.2595 6.17868 11.7673 6.67006 11.1623 6.67006ZM11.1623 4.89211C10.7868 4.89211 10.4814 5.19816 10.4814 5.57449C10.4814 5.94981 10.7868 6.25525 11.1623 6.25525C11.5387 6.25525 11.8447 5.94981 11.8447 5.57449C11.8447 5.19816 11.5387 4.89211 11.1623 4.89211Z" fill="#A2E55A"/>
</g>
<g id="Group_3">
<path id="Vector_21" d="M27.2599 14.4466L23.9086 9.30999C23.6556 8.92293 23.2282 8.69182 22.7658 8.69182C20.7197 8.69182 18.8626 8.69182 16.4516 8.69182C15.8296 8.69182 15.3234 9.19799 15.3234 9.82V17.2958C15.3234 17.3942 15.2434 17.4744 15.145 17.4744H14.8566V8.80849C14.8566 8.16216 14.3308 7.63635 13.6844 7.63635C7.39136 7.63635 8.73283 7.63635 2.57558 7.63635C1.92905 7.63635 1.40325 8.16216 1.40325 8.80849V17.4744H1.30481C0.871158 17.4744 0.518524 17.8271 0.518524 18.2607C0.518524 19.243 0.518524 19.8909 0.518524 20.8122C0.518524 20.8999 0.531487 20.9827 0.554982 21.0528C0.633571 21.3137 0.836521 21.5167 1.09153 21.5934C1.16748 21.6187 1.25032 21.6317 1.33782 21.6317H2.52459C2.44074 21.9007 2.39552 22.1865 2.39552 22.4826C2.39552 24.0635 3.6827 25.3496 5.26479 25.3496C6.84566 25.3496 8.13183 24.0635 8.13183 22.4826C8.13183 22.1865 8.08666 21.9007 8.00291 21.6317H18.433C18.3491 21.9007 18.3039 22.1865 18.3039 22.4826C18.3039 24.2962 19.9865 25.6816 21.7953 25.2798C21.9956 25.3251 22.2037 25.3496 22.4176 25.3496C23.9985 25.3496 25.2847 24.0635 25.2847 22.4826C25.2847 22.1857 25.2351 21.9009 25.1501 21.6317C25.1954 21.6317 26.6925 21.6317 26.662 21.6317C26.7475 21.6317 26.8303 21.6191 26.9083 21.5944C27.0847 21.5383 27.2388 21.4237 27.3409 21.2724C27.4329 21.1385 27.4815 20.9793 27.4815 20.8124V15.1921C27.4815 14.927 27.4049 14.6692 27.2599 14.4466ZM6.18374 8.05117H10.0761V11.7456C10.0761 11.8436 10.0086 11.889 9.97966 11.904C9.9505 11.919 9.87434 11.9476 9.79474 11.8912L8.44234 10.9368C8.33965 10.8643 8.21994 10.8281 8.10024 10.8281C7.97749 10.8281 7.85495 10.8662 7.75064 10.9419L6.46731 11.8763C6.3875 11.9344 6.31054 11.906 6.28137 11.891C6.252 11.8763 6.18375 11.8309 6.18375 11.732L6.18374 8.05117ZM1.81806 8.80849C1.81806 8.39084 2.15793 8.05117 2.57558 8.05117H5.76893V11.732C5.76893 11.9565 5.89309 12.159 6.09321 12.2609C6.29332 12.3624 6.5301 12.3435 6.71158 12.2117L7.99491 11.2773C8.05669 11.232 8.14034 11.2311 8.20293 11.2757L9.55533 12.2303C9.65782 12.3024 9.77732 12.3393 9.89743 12.3393C9.9906 12.3393 10.0842 12.317 10.1707 12.2724C10.3681 12.1699 10.4909 11.9682 10.4909 11.7456V8.05117H13.6844C14.1021 8.05117 14.4418 8.39084 14.4418 8.80849V17.4728H1.81806V8.80849ZM1.33782 21.2169C1.29509 21.2169 1.2566 21.2112 1.21731 21.1982C1.09153 21.1604 0.989851 21.0587 0.950151 20.927C0.939009 20.8936 0.933339 20.8551 0.933339 20.8122C0.933339 20.7846 0.933339 19.7883 0.933339 19.844H4.14339C3.51137 20.1132 2.99772 20.6042 2.69423 21.2169H1.33782ZM5.26479 24.9348C3.91138 24.9348 2.81034 23.8348 2.81034 22.4826C2.81034 21.1304 3.91138 20.0304 5.26479 20.0304C6.61699 20.0304 7.71702 21.1304 7.71702 22.4826C7.71702 23.8348 6.61699 24.9348 5.26479 24.9348ZM7.83338 21.2169C7.53015 20.6042 7.01687 20.1132 6.38535 19.844H20.0518C19.4198 20.1132 18.9061 20.6042 18.6026 21.2169H7.83338ZM21.796 24.8518C21.7941 24.8512 21.7921 24.851 21.7902 24.8506C21.7864 24.8528 21.7821 24.8542 21.7782 24.8562C21.5843 24.9059 21.3823 24.9348 21.1732 24.9348C19.8198 24.9348 18.7187 23.8348 18.7187 22.4826C18.7187 21.1304 19.8198 20.0304 21.1732 20.0304C22.5254 20.0304 23.6254 21.1304 23.6254 22.4826C23.6254 23.6193 22.847 24.5751 21.796 24.8518ZM22.6732 24.9212C23.4918 24.4159 24.0402 23.5134 24.0402 22.4826C24.0402 22.1865 23.9951 21.9007 23.9113 21.6317H24.7123C24.8118 21.8972 24.8699 22.1826 24.8699 22.4826C24.8699 23.7485 23.9057 24.793 22.6732 24.9212ZM25.8779 20.8122C25.8779 20.8952 25.8544 20.9732 25.8095 21.0388C25.7584 21.1142 25.6821 21.1711 25.5944 21.1991C25.5569 21.2108 25.5162 21.2169 25.4732 21.2169C25.4417 21.2169 23.6459 21.2169 23.7418 21.2169C23.4385 20.6042 22.9253 20.1132 22.2937 19.844H25.8779C25.8779 19.8758 25.8779 20.8661 25.8779 20.8122ZM25.8779 15.8913H25.7718C25.1765 15.8913 24.6922 16.3756 24.6922 16.9709C24.6922 17.5664 25.1765 18.0507 25.7718 18.0507H25.8779V19.4292H0.933339V18.2607C0.933339 18.0559 1.10003 17.8892 1.30481 17.8892C5.70865 17.8892 10.3811 17.8892 15.145 17.8892C15.4721 17.8892 15.7383 17.6231 15.7383 17.2958V9.82C15.7383 9.42666 16.0583 9.10664 16.4516 9.10664C20.9897 9.10664 18.9599 9.10664 21.5771 9.10664C21.8991 9.10664 22.1964 9.26746 22.3727 9.53685L25.7236 14.673C25.8245 14.828 25.8779 15.0076 25.8779 15.1921V15.8913ZM25.8378 16.3061V17.6359H25.7718C25.4052 17.6359 25.107 17.3375 25.107 16.9709C25.107 16.6043 25.4052 16.3061 25.7718 16.3061H25.8378ZM27.0667 20.8124C27.0667 20.8952 27.0432 20.9732 26.9982 21.0388C26.9466 21.1154 26.872 21.1707 26.7827 21.1991C26.745 21.211 26.7053 21.2169 26.662 21.2169H26.1843C26.2541 21.0952 26.2927 20.9572 26.2927 20.8122C26.2927 20.7805 26.2927 19.5712 26.2927 19.6366V15.1921C26.2927 14.927 26.2162 14.6692 26.0712 14.4466L22.7198 9.30999C22.6712 9.23566 22.6144 9.16902 22.5539 9.10664H22.7658C23.0879 9.10664 23.3852 9.26746 23.5614 9.53684L26.9123 14.673C27.0132 14.828 27.0667 15.0076 27.0667 15.1921L27.0667 20.8124Z" fill="#402DA3"/>
<path id="Vector_22" d="M21.715 10.0096C21.6767 9.95089 21.6115 9.91565 21.5414 9.91565H16.7546C16.64 9.91565 16.5472 10.0084 16.5472 10.1231V15.082C16.5472 15.1966 16.64 15.2894 16.7546 15.2894H24.7769C24.853 15.2894 24.9229 15.2477 24.9592 15.1808C24.9954 15.1138 24.9922 15.0326 24.9507 14.9688L21.715 10.0096ZM16.962 14.8746V10.3305H21.4292L24.3941 14.8746H16.962ZM5.26419 21.0782C4.48924 21.0782 3.85892 21.7083 3.85892 22.4826C3.85892 23.257 4.48924 23.8869 5.26419 23.8869C6.03852 23.8869 6.66864 23.257 6.66864 22.4826C6.66864 21.7083 6.03852 21.0782 5.26419 21.0782ZM5.26419 23.4721C4.71812 23.4721 4.27374 23.0283 4.27374 22.4826C4.27374 21.937 4.71812 21.493 5.26419 21.493C5.80985 21.493 6.25383 21.937 6.25383 22.4826C6.25383 23.0283 5.80985 23.4721 5.26419 23.4721ZM21.1726 21.0782C20.3976 21.0782 19.7673 21.7083 19.7673 22.4826C19.7673 23.257 20.3976 23.8869 21.1726 23.8869C21.9469 23.8869 22.577 23.257 22.577 22.4826C22.577 21.7083 21.9469 21.0782 21.1726 21.0782ZM21.1726 23.4721C20.6265 23.4721 20.1821 23.0283 20.1821 22.4826C20.1821 21.937 20.6265 21.493 21.1726 21.493C21.7182 21.493 22.1622 21.937 22.1622 22.4826C22.1622 23.0283 21.7182 23.4721 21.1726 23.4721ZM2.28493 26.1402H1.05609C0.941446 26.1402 0.848679 26.233 0.848679 26.3476C0.848679 26.4623 0.941446 26.555 1.05609 26.555H2.28493C2.39957 26.555 2.49234 26.4623 2.49234 26.3476C2.49234 26.233 2.39958 26.1402 2.28493 26.1402ZM23.6378 26.1402H20.9644C20.8497 26.1402 20.757 26.233 20.757 26.3476C20.757 26.4623 20.8497 26.555 20.9644 26.555H23.6378C23.7524 26.555 23.8452 26.4623 23.8452 26.3476C23.8452 26.233 23.7524 26.1402 23.6378 26.1402ZM7.59813 26.1402H4.92492C4.81028 26.1402 4.71751 26.233 4.71751 26.3476C4.71751 26.4623 4.81028 26.555 4.92492 26.555H7.59813C7.71277 26.555 7.80554 26.4623 7.80554 26.3476C7.80554 26.233 7.71277 26.1402 7.59813 26.1402ZM12.9447 26.1402H10.2713C10.1567 26.1402 10.0639 26.233 10.0639 26.3476C10.0639 26.4623 10.1567 26.555 10.2713 26.555H12.9447C13.0594 26.555 13.1521 26.4623 13.1521 26.3476C13.1521 26.233 13.0594 26.1402 12.9447 26.1402ZM18.2912 26.1402H15.6179C15.5033 26.1402 15.4105 26.233 15.4105 26.3476C15.4105 26.4623 15.5033 26.555 15.6179 26.555H18.2912C18.4058 26.555 18.4986 26.4623 18.4986 26.3476C18.4986 26.233 18.4058 26.1402 18.2912 26.1402ZM27.2741 26.1402H26.045C25.9304 26.1402 25.8376 26.233 25.8376 26.3476C25.8376 26.4623 25.9304 26.555 26.045 26.555H27.2741C27.3887 26.555 27.4815 26.4623 27.4815 26.3476C27.4815 26.233 27.3887 26.1402 27.2741 26.1402Z" fill="#402DA3"/>
</g>
</g>
</svg>
