<svg width="35" height="30" viewBox="0 0 35 30" fill="none" xmlns="http://www.w3.org/2000/svg">
<g id="SMS 1">
<path id="Vector" d="M7.3934 8.8934L8.38335 7.90345L7.3934 8.8934ZM4.5 6L3.51005 6.98995L4.5 6ZM16.5 27.1C15.7268 27.1 15.1 27.7268 15.1 28.5C15.1 29.2732 15.7268 29.9 16.5 29.9V27.1ZM31.5676 25.4084L30.435 24.5855L30.435 24.5855L31.5676 25.4084ZM29.9084 27.0676L29.0855 25.935L29.9084 27.0676ZM29.9084 2.93237L30.7313 1.79975L30.7313 1.79975L29.9084 2.93237ZM31.5676 4.59161L30.435 5.41451L30.435 5.41451L31.5676 4.59161ZM6.09161 2.93237L5.26871 1.79975V1.79975L6.09161 2.93237ZM1.6 15C1.6 15.7732 2.2268 16.4 3 16.4C3.7732 16.4 4.4 15.7732 4.4 15H1.6ZM4.43237 4.59161L3.29975 3.76871L4.43237 4.59161ZM1.5 24.1C0.726801 24.1 0.1 24.7268 0.1 25.5C0.1 26.2732 0.726801 26.9 1.5 26.9V24.1ZM10.5 26.9C11.2732 26.9 11.9 26.2732 11.9 25.5C11.9 24.7268 11.2732 24.1 10.5 24.1V26.9ZM1.5 19.6C0.726801 19.6 0.1 20.2268 0.1 21C0.1 21.7732 0.726801 22.4 1.5 22.4V19.6ZM6 22.4C6.7732 22.4 7.4 21.7732 7.4 21C7.4 20.2268 6.7732 19.6 6 19.6V22.4ZM3.93154 5.43154L2.67033 4.82382L3.93154 5.43154ZM8.38335 7.90345L5.67193 5.19203L3.69203 7.17193L6.40345 9.88335L8.38335 7.90345ZM30.3281 5.19203L27.6167 7.90345L29.5966 9.88334L32.308 7.17193L30.3281 5.19203ZM6.40345 9.88335C8.87546 12.3554 10.827 14.3111 12.5575 15.6314C14.3204 16.9764 16.0175 17.7934 18 17.7934V14.9934C16.8759 14.9934 15.7697 14.5604 14.2559 13.4054C12.7098 12.2257 10.9113 10.4314 8.38335 7.90345L6.40345 9.88335ZM27.6167 7.90345C25.0887 10.4314 23.2902 12.2257 21.7441 13.4054C20.2303 14.5604 19.1241 14.9934 18 14.9934V17.7934C19.9825 17.7934 21.6796 16.9764 23.4425 15.6314C25.173 14.3111 27.1245 12.3554 29.5966 9.88334L27.6167 7.90345ZM8.38335 7.90345L5.48995 5.01005L3.51005 6.98995L6.40345 9.88335L8.38335 7.90345ZM30.51 5.01005L27.6167 7.90345L29.5966 9.88334L32.49 6.98995L30.51 5.01005ZM16.5 2.9H19.5V0.1H16.5V2.9ZM19.5 27.1H16.5V29.9H19.5V27.1ZM31.6 15C31.6 17.8435 31.5981 19.8636 31.4291 21.4233C31.263 22.9568 30.9489 23.8782 30.435 24.5855L32.7003 26.2313C33.6187 24.9671 34.0209 23.4966 34.2128 21.7249C34.4019 19.9794 34.4 17.7811 34.4 15H31.6ZM19.5 29.9C22.2811 29.9 24.4794 29.9019 26.2249 29.7128C27.9966 29.5209 29.4671 29.1187 30.7313 28.2003L29.0855 25.935C28.3782 26.4489 27.4568 26.763 25.9233 26.9291C24.3636 27.0981 22.3435 27.1 19.5 27.1V29.9ZM30.435 24.5855C30.0588 25.1033 29.6033 25.5588 29.0855 25.935L30.7313 28.2003C31.4869 27.6513 32.1513 26.9869 32.7003 26.2313L30.435 24.5855ZM19.5 2.9C22.3435 2.9 24.3636 2.90192 25.9233 3.0709C27.4568 3.23704 28.3782 3.5511 29.0855 4.065L30.7313 1.79975C29.4671 0.88127 27.9966 0.479144 26.2249 0.287192C24.4794 0.0980784 22.2811 0.1 19.5 0.1V2.9ZM29.0855 4.065C29.6033 4.44124 30.0588 4.89665 30.435 5.41451L32.7003 3.76871C32.1513 3.01315 31.4868 2.3487 30.7313 1.79975L29.0855 4.065ZM16.5 0.1C13.7189 0.1 11.5206 0.0980784 9.77509 0.287192C8.00339 0.479144 6.53289 0.88127 5.26871 1.79975L6.91451 4.065C7.62182 3.5511 8.54322 3.23704 10.0767 3.0709C11.6364 2.90192 13.6565 2.9 16.5 2.9V0.1ZM5.26871 1.79975C4.51315 2.3487 3.8487 3.01315 3.29975 3.76871L5.565 5.41451C5.94124 4.89665 6.39665 4.44124 6.91451 4.065L5.26871 1.79975ZM1.5 26.9H10.5V24.1H1.5V26.9ZM1.5 22.4H6V19.6H1.5V22.4ZM4.4 15C4.4 12.5433 4.40091 10.6954 4.51246 9.21878C4.62377 7.74547 4.83845 6.77458 5.19276 6.03927L2.67033 4.82382C2.0931 6.02174 1.842 7.39852 1.72042 9.00785C1.59909 10.6139 1.6 12.5836 1.6 15H4.4ZM5.19276 6.03927C5.301 5.81465 5.42408 5.60847 5.565 5.41451L3.29975 3.76871C3.05792 4.10156 2.84939 4.4522 2.67033 4.82382L5.19276 6.03927ZM5.48995 5.01005L4.92149 4.44159L2.94159 6.42149L3.51005 6.98995L5.48995 5.01005ZM34.4 15C34.4 12.5836 34.4009 10.6139 34.2796 9.00785C34.158 7.39852 33.9069 6.02174 33.3297 4.82382L30.8072 6.03927C31.1616 6.77458 31.3762 7.74547 31.4875 9.21878C31.5991 10.6954 31.6 12.5433 31.6 15H34.4ZM33.3297 4.82382C33.1506 4.4522 32.9421 4.10156 32.7003 3.76871L30.435 5.41451C30.5759 5.60847 30.699 5.81465 30.8072 6.03927L33.3297 4.82382ZM32.49 6.98995L33.0584 6.42149L31.0785 4.44159L30.51 5.01005L32.49 6.98995Z" fill="#FFCCD5"/>
</g>
</svg>
