<svg width="20" height="17" viewBox="0 0 20 17" fill="none" xmlns="http://www.w3.org/2000/svg">
<g id="SMS 1">
<path id="Vector" d="M4.10761 5.35439L4.60258 4.85942L4.10761 5.35439ZM2.50016 3.74695L2.00519 4.24192L2.50016 3.74695ZM9.16683 15.5469C8.78023 15.5469 8.46683 15.8603 8.46683 16.2469C8.46683 16.6335 8.78023 16.9469 9.16683 16.9469V15.5469ZM17.5377 14.5294L16.9714 14.1179L17.5377 14.5294ZM16.6159 15.4512L16.2045 14.8849L16.6159 15.4512ZM16.6159 2.04271L17.0274 1.4764L17.0274 1.4764L16.6159 2.04271ZM17.5377 2.96451L16.9714 3.37596V3.37596L17.5377 2.96451ZM3.38439 2.04271L2.97294 1.4764V1.4764L3.38439 2.04271ZM0.966829 8.74695C0.966829 9.13355 1.28023 9.44695 1.66683 9.44695C2.05343 9.44695 2.36683 9.13355 2.36683 8.74695H0.966829ZM2.46259 2.96451L1.89628 2.55306V2.55306L2.46259 2.96451ZM0.833496 13.8803C0.446897 13.8803 0.133496 14.1937 0.133496 14.5803C0.133496 14.9669 0.446897 15.2803 0.833496 15.2803V13.8803ZM5.8335 15.2803C6.2201 15.2803 6.5335 14.9669 6.5335 14.5803C6.5335 14.1937 6.2201 13.8803 5.8335 13.8803V15.2803ZM0.833496 11.3803C0.446897 11.3803 0.133496 11.6937 0.133496 12.0803C0.133496 12.4669 0.446897 12.7803 0.833496 12.7803V11.3803ZM3.3335 12.7803C3.7201 12.7803 4.0335 12.4669 4.0335 12.0803C4.0335 11.6937 3.7201 11.3803 3.3335 11.3803V12.7803ZM2.18435 3.43114L1.55375 3.12728L2.18435 3.43114ZM4.60258 4.85942L3.09624 3.35308L2.10629 4.34303L3.61263 5.84937L4.60258 4.85942ZM16.9041 3.35308L15.3977 4.85942L16.3877 5.84936L17.894 4.34303L16.9041 3.35308ZM3.61263 5.84937C4.98753 7.22426 6.06744 8.30628 7.02374 9.03591C7.99618 9.77786 8.92263 10.2211 10.0002 10.2211V8.82106C9.35181 8.82106 8.72086 8.56981 7.87295 7.92288C7.00888 7.26362 6.00546 6.2623 4.60258 4.85942L3.61263 5.84937ZM15.3977 4.85942C13.9949 6.2623 12.9914 7.26361 12.1274 7.92288C11.2795 8.56981 10.6485 8.82106 10.0002 8.82106V10.2211C11.0777 10.2211 12.0041 9.77786 12.9766 9.03591C13.9329 8.30628 15.0128 7.22426 16.3877 5.84936L15.3977 4.85942ZM4.60258 4.85942L2.99514 3.25197L2.00519 4.24192L3.61263 5.84937L4.60258 4.85942ZM17.0052 3.25197L15.3977 4.85942L16.3877 5.84936L17.9951 4.24192L17.0052 3.25197ZM9.16683 1.94695H10.8335V0.546948H9.16683V1.94695ZM10.8335 15.5469H9.16683V16.9469H10.8335V15.5469ZM17.6335 8.74695C17.6335 10.3249 17.6325 11.4522 17.5381 12.3238C17.4451 13.1824 17.2682 13.7095 16.9714 14.1179L18.104 14.9408C18.6031 14.254 18.824 13.4523 18.93 12.4746C19.0345 11.5101 19.0335 10.2937 19.0335 8.74695H17.6335ZM10.8335 16.9469C12.3803 16.9469 13.5966 16.9479 14.5612 16.8434C15.5388 16.7375 16.3405 16.5165 17.0274 16.0175L16.2045 14.8849C15.7961 15.1816 15.2689 15.3585 14.4104 15.4516C13.5387 15.546 12.4115 15.5469 10.8335 15.5469V16.9469ZM16.9714 14.1179C16.7576 14.4122 16.4988 14.6711 16.2045 14.8849L17.0274 16.0175C17.4405 15.7173 17.8039 15.354 18.104 14.9408L16.9714 14.1179ZM10.8335 1.94695C12.4115 1.94695 13.5387 1.94791 14.4104 2.04235C15.2689 2.13536 15.7961 2.31229 16.2045 2.60902L17.0274 1.4764C16.3405 0.977371 15.5388 0.756414 14.5612 0.650491C13.5966 0.545987 12.3803 0.546948 10.8335 0.546948V1.94695ZM16.2045 2.60902C16.4988 2.82285 16.7576 3.08166 16.9714 3.37596L18.104 2.55306C17.8039 2.1399 17.4405 1.77657 17.0274 1.4764L16.2045 2.60902ZM9.16683 0.546948C7.62003 0.546948 6.40371 0.545987 5.43915 0.650491C4.46149 0.756414 3.65979 0.977371 2.97294 1.4764L3.79584 2.60902C4.20426 2.31229 4.7314 2.13536 5.58995 2.04235C6.46159 1.94791 7.58885 1.94695 9.16683 1.94695V0.546948ZM2.97294 1.4764C2.55979 1.77657 2.19645 2.13991 1.89628 2.55306L3.0289 3.37596C3.24273 3.08166 3.50154 2.82285 3.79584 2.60902L2.97294 1.4764ZM0.833496 15.2803H5.8335V13.8803H0.833496V15.2803ZM0.833496 12.7803H3.3335V11.3803H0.833496V12.7803ZM2.36683 8.74695C2.36683 7.38322 2.36728 6.35324 2.42953 5.5293C2.49165 4.70702 2.61193 4.15636 2.81496 3.735L1.55375 3.12728C1.23925 3.77994 1.10077 4.53354 1.03351 5.42383C0.966375 6.31247 0.966829 7.40338 0.966829 8.74695H2.36683ZM2.81496 3.735C2.87706 3.60613 2.94781 3.48757 3.0289 3.37596L1.89628 2.55306C1.76473 2.73412 1.65126 2.9249 1.55375 3.12728L2.81496 3.735ZM2.99514 3.25197L2.67933 2.93616L1.68938 3.92611L2.00519 4.24192L2.99514 3.25197ZM19.0335 8.74695C19.0335 7.40338 19.034 6.31247 18.9668 5.42383C18.8996 4.53354 18.7611 3.77994 18.4466 3.12728L17.1854 3.735C17.3884 4.15636 17.5087 4.70702 17.5708 5.5293C17.633 6.35324 17.6335 7.38322 17.6335 8.74695H19.0335ZM18.4466 3.12728C18.3491 2.9249 18.2356 2.73412 18.104 2.55306L16.9714 3.37596C17.0525 3.48757 17.1233 3.60613 17.1854 3.735L18.4466 3.12728ZM17.9951 4.24192L18.3109 3.92611L17.321 2.93616L17.0052 3.25197L17.9951 4.24192Z" fill="#9CB3F4"/>
</g>
</svg>
