<svg width="20" height="16" viewBox="0 0 20 16" fill="none" xmlns="http://www.w3.org/2000/svg">
<g id="Hide">
<path id="Vector" d="M10 9.80004C9.61342 9.80004 9.30002 10.1134 9.30002 10.5C9.30002 10.8866 9.61342 11.2 10 11.2V9.80004ZM13.2 8.00004C13.2 7.61344 12.8866 7.30004 12.5 7.30004C12.1134 7.30004 11.8 7.61344 11.8 8.00004H13.2ZM2.68391 6.43787L2.11527 6.02965L2.11527 6.02965L2.68391 6.43787ZM2.68373 9.56195L3.25237 9.15374L3.25237 9.15374L2.68373 9.56195ZM4.82333 12.0774L5.34875 11.6148L5.331 11.5947L5.31177 11.576L4.82333 12.0774ZM15.0842 3.83337L14.6001 4.339L14.62 4.35803L14.6413 4.37545L15.0842 3.83337ZM1.94745 8.00002L1.24745 8.00002L1.94745 8.00002ZM17.3161 9.56221L17.8848 9.97043L17.8848 9.97043L17.3161 9.56221ZM17.3161 6.43781L16.7474 6.84603L16.7474 6.84603L17.3161 6.43781ZM17.0542 4.94488C16.8096 4.64553 16.3686 4.60119 16.0692 4.84584C15.7699 5.09048 15.7255 5.53147 15.9702 5.83082L17.0542 4.94488ZM6.65838 12.7159C6.34439 12.4904 5.90701 12.5621 5.68148 12.8761C5.45595 13.1901 5.52766 13.6275 5.84166 13.853L6.65838 12.7159ZM18.0526 8.00004L17.3526 8.00004L17.3526 8.00004L18.0526 8.00004ZM1.2294 14.1201C0.927517 14.3616 0.878572 14.8021 1.12008 15.104C1.36159 15.4059 1.80209 15.4548 2.10397 15.2133L1.2294 14.1201ZM18.7706 1.87998C19.0725 1.63848 19.1215 1.19797 18.88 0.896087C18.6385 0.594204 18.198 0.545259 17.8961 0.786766L18.7706 1.87998ZM15.1456 3.88355L15.5829 4.43016L15.5829 4.43016L15.1456 3.88355ZM4.85639 12.1149L5.29368 12.6615L5.29368 12.6615L4.85639 12.1149ZM10 4.80004C8.23271 4.80004 6.80002 6.23273 6.80002 8.00004H8.20002C8.20002 7.00593 9.00591 6.20004 10 6.20004V4.80004ZM6.80002 8.00004C6.80002 8.7516 7.05998 9.44437 7.49436 9.99059L8.59011 9.11919C8.34564 8.81178 8.20002 8.42388 8.20002 8.00004H6.80002ZM12.498 5.99989C11.9127 5.26965 11.011 4.80004 10 4.80004V6.20004C10.5682 6.20004 11.0746 6.46248 11.4056 6.87547L12.498 5.99989ZM10 11.2C11.7673 11.2 13.2 9.76735 13.2 8.00004H11.8C11.8 8.99415 10.9941 9.80004 10 9.80004V11.2ZM10 0.633374C8.19113 0.633374 6.56143 1.52774 5.24561 2.60511C3.92179 3.68903 2.84072 5.01913 2.11527 6.02965L3.25255 6.8461C3.94166 5.8862 4.94085 4.66406 6.13253 3.68833C7.33223 2.70605 8.6533 2.03337 10 2.03337V0.633374ZM2.11508 9.97017C2.6683 10.7408 3.42484 11.6923 4.33489 12.5788L5.31177 11.576C4.47814 10.7639 3.77452 9.88109 3.25237 9.15374L2.11508 9.97017ZM15.5683 3.32775C14.1202 1.94129 12.1884 0.633374 10 0.633374V2.03337C11.6396 2.03337 13.2344 3.03146 14.6001 4.339L15.5683 3.32775ZM2.11527 6.02965C1.65677 6.66832 1.24746 7.19768 1.24745 8.00002L2.64745 8.00003C2.64745 7.72976 2.72911 7.57523 3.25255 6.8461L2.11527 6.02965ZM3.25237 9.15374C2.72907 8.42478 2.64745 8.2703 2.64745 8.00003L1.24745 8.00002C1.24744 8.80234 1.65668 9.33162 2.11508 9.97017L3.25237 9.15374ZM10 15.3667C11.8089 15.3667 13.4386 14.4723 14.7544 13.395C16.0783 12.3111 17.1593 10.981 17.8848 9.97043L16.7475 9.15398C16.0584 10.1139 15.0592 11.336 13.8675 12.3118C12.6678 13.294 11.3467 13.9667 10 13.9667V15.3667ZM17.8847 6.02958C17.6442 5.69455 17.366 5.32639 17.0542 4.94488L15.9702 5.83082C16.2612 6.18684 16.5216 6.53149 16.7474 6.84603L17.8847 6.02958ZM5.84166 13.853C7.03596 14.7109 8.45163 15.3667 10 15.3667V13.9667C8.85073 13.9667 7.7184 13.4773 6.65838 12.7159L5.84166 13.853ZM17.8848 9.97043C18.3433 9.33175 18.7526 8.80238 18.7526 8.00003L17.3526 8.00004C17.3526 8.2703 17.2709 8.42484 16.7475 9.15398L17.8848 9.97043ZM16.7474 6.84603C17.2709 7.57522 17.3526 7.72977 17.3526 8.00004L18.7526 8.00003C18.7526 7.19769 18.3433 6.66829 17.8847 6.02958L16.7474 6.84603ZM15.5829 4.43016L18.7706 1.87998L17.8961 0.786766L14.7083 3.33694L15.5829 4.43016ZM14.6413 4.37545L14.7027 4.42563L15.5885 3.34148L15.5271 3.2913L14.6413 4.37545ZM2.10397 15.2133L5.29368 12.6615L4.41911 11.5683L1.2294 14.1201L2.10397 15.2133ZM5.29368 12.6615L15.5829 4.43016L14.7083 3.33694L4.41911 11.5683L5.29368 12.6615ZM4.29792 12.5399L4.33098 12.5775L5.38181 11.6524L5.34875 11.6148L4.29792 12.5399Z" fill="#B0B0B0"/>
</g>
</svg>
