<svg width="17" height="18" viewBox="0 0 17 18" fill="none" xmlns="http://www.w3.org/2000/svg">
<g id="Filter 3">
<path id="Vector" d="M1 4.39372C1 2.79556 2.29556 1.5 3.89372 1.5H13.1535C14.7256 1.5 16 2.77441 16 4.34647C16 5.18377 15.6314 5.97859 14.9922 6.51943L12.0586 9.00172C11.1229 9.7934 10.5833 10.9569 10.5833 12.1825V13.6664C10.5833 14.3995 10.2325 15.0885 9.63956 15.5197L8.02184 16.6962C7.18039 17.3082 6 16.7071 6 15.6667V12.0829C6 10.915 5.50981 9.80066 4.64885 9.01145L1.93836 6.52683C1.34044 5.97873 1 5.20484 1 4.39372Z" stroke="white" stroke-width="1.4"/>
</g>
</svg>
