<svg width="16" height="14" viewBox="0 0 16 14" fill="none" xmlns="http://www.w3.org/2000/svg">
<g id="Filter 1">
<path id="Vector" d="M8.04582 11.9124C8.43242 11.9124 8.74582 11.599 8.74582 11.2124C8.74582 10.8258 8.43242 10.5124 8.04582 10.5124L8.04582 11.9124ZM1.37915 10.5124C0.992551 10.5124 0.67915 10.8258 0.67915 11.2124C0.67915 11.599 0.992551 11.9124 1.37915 11.9124L1.37915 10.5124ZM8.04582 2.17907C7.65922 2.17907 7.34582 2.49247 7.34582 2.87907C7.34582 3.26567 7.65922 3.57907 8.04582 3.57907L8.04582 2.17907ZM14.7125 3.57907C15.0991 3.57907 15.4125 3.26567 15.4125 2.87907C15.4125 2.49247 15.0991 2.17907 14.7125 2.17907L14.7125 3.57907ZM8.04582 10.5124L1.37915 10.5124L1.37915 11.9124L8.04582 11.9124L8.04582 10.5124ZM8.04582 3.57907L14.7125 3.57907L14.7125 2.17907L8.04582 2.17907L8.04582 3.57907ZM0.67915 2.87907C0.67915 4.18614 1.73874 5.24574 3.04582 5.24574V3.84574C2.51194 3.84574 2.07915 3.41294 2.07915 2.87907H0.67915ZM3.04582 5.24574C4.35289 5.24574 5.41248 4.18614 5.41248 2.87907H4.01248C4.01248 3.41294 3.57969 3.84574 3.04582 3.84574V5.24574ZM5.41248 2.87907C5.41248 1.572 4.35289 0.512402 3.04582 0.512402V1.9124C3.57969 1.9124 4.01248 2.34519 4.01248 2.87907H5.41248ZM3.04582 0.512402C1.73874 0.512402 0.67915 1.572 0.67915 2.87907H2.07915C2.07915 2.34519 2.51194 1.9124 3.04582 1.9124V0.512402ZM15.4125 11.2124C15.4125 9.90533 14.3529 8.84574 13.0458 8.84574L13.0458 10.2457C13.5797 10.2457 14.0125 10.6785 14.0125 11.2124L15.4125 11.2124ZM13.0458 8.84574C11.7387 8.84574 10.6792 9.90533 10.6792 11.2124L12.0792 11.2124C12.0792 10.6785 12.5119 10.2457 13.0458 10.2457L13.0458 8.84574ZM10.6792 11.2124C10.6792 12.5195 11.7387 13.5791 13.0458 13.5791L13.0458 12.1791C12.5119 12.1791 12.0792 11.7463 12.0792 11.2124L10.6792 11.2124ZM13.0458 13.5791C14.3529 13.5791 15.4125 12.5195 15.4125 11.2124L14.0125 11.2124C14.0125 11.7463 13.5797 12.1791 13.0458 12.1791L13.0458 13.5791Z" fill="white"/>
</g>
</svg>
