<svg width="185" height="26" viewBox="0 0 185 26" fill="none" xmlns="http://www.w3.org/2000/svg">
<g id="Group 48">
<path id="Vector" d="M0.678697 0.551416C1.30075 0.183805 2.33295 0 3.7751 0H5.00515H6.70187C6.98461 0 7.32393 0.0706931 7.71983 0.212085C8.14402 0.353471 8.41264 0.480723 8.52575 0.593836C8.61057 0.678668 8.70956 0.975581 8.82266 1.48458C8.96406 1.96531 9.03476 2.3612 9.03476 2.67225C9.03476 3.35092 9.04888 4.01545 9.07717 4.66585L9.16198 7.80466L10.2224 7.33806C11.7494 6.68771 13.0361 6.36251 14.0823 6.36251C14.6762 6.36251 15.27 6.44732 15.8639 6.61701C18.8896 7.40876 20.8832 9.57202 21.8446 13.1068C22.0425 13.7288 22.1415 14.662 22.1415 15.9063C22.1415 17.0374 22.0425 17.8574 21.8446 18.3664C21.2225 20.2328 20.3176 21.7739 19.1299 22.9899C17.9423 24.2058 16.585 24.9693 15.0579 25.2804C14.6337 25.3652 14.1813 25.4076 13.7006 25.4076C11.9191 25.4076 10.4204 25.04 9.20445 24.3047L8.35612 23.8382C8.29954 23.8382 8.18643 24.022 8.01674 24.3896C7.84711 24.7572 7.6209 24.9834 7.3381 25.0683H7.16841H6.82909C6.71599 25.0965 6.56047 25.1107 6.36249 25.1107C6.05146 25.1107 5.76867 25.0965 5.51416 25.0683H4.58102C3.33679 25.04 2.47429 24.9551 1.99357 24.8138C1.14524 24.531 0.678697 23.9371 0.593824 23.0323C0.565533 22.6647 0.523125 21.5053 0.4666 19.5541V18.9603V18.3664C0.438309 18.225 0.424192 17.9988 0.424192 17.6877C0.395901 14.4641 0.296911 10.8728 0.127223 6.91393C0.0424071 5.1324 0 3.83164 0 3.01159C0 1.65425 0.226213 0.834194 0.678697 0.551416ZM13.022 12.9371C12.7392 12.7392 12.2302 12.6402 11.4949 12.6402C10.7031 12.6402 10.1517 12.6967 9.84068 12.8098C9.55789 12.8947 9.37408 13.1209 9.28926 13.4885C9.20445 13.8278 9.14786 14.4641 9.11957 15.3973C9.09134 15.6235 9.07717 16.0194 9.07717 16.5849C9.07717 17.0656 9.19027 17.4191 9.41649 17.6453C9.64276 17.8716 10.0386 18.0695 10.6042 18.2392C11.1414 18.4089 11.5939 18.4937 11.9615 18.4937C12.0181 18.4937 12.0605 18.4796 12.0888 18.4513H12.216C12.8381 18.3099 13.3189 17.9705 13.6582 17.4332C14.0258 16.8677 14.2096 16.3446 14.2096 15.8639C14.2096 15.5528 14.1955 15.3549 14.1672 15.27C14.0823 14.1389 13.7006 13.3612 13.022 12.9371Z" fill="white"/>
<path id="Vector_2" d="M58.6136 6.2545C59.2357 6.08487 59.8715 6 60.5223 6C62.4734 6 64.0004 6.5373 65.1033 7.61184C66.2063 8.68644 66.9976 10.0438 67.4785 11.6839C67.7046 12.4474 67.832 14.7096 67.8601 18.4705V21.1428C67.8601 23.094 67.7752 24.1544 67.6059 24.324C67.4929 24.4937 67.2662 24.5927 66.927 24.6209C66.5879 24.6775 65.5699 24.7199 63.873 24.7482L60.3949 24.833L60.225 24.4513C60.1969 24.3382 60.1119 22.9667 59.9708 20.3369C59.9427 18.216 59.8434 16.5901 59.6741 15.459C59.5042 14.6389 59.1789 13.9602 58.698 13.423C58.4438 13.1685 58.1046 13.0412 57.68 13.0412C55.6158 13.0412 54.584 14.9782 54.584 18.8523C54.584 19.9551 54.5978 20.7045 54.6265 21.1004C54.6546 21.6376 54.6684 22.5001 54.6684 23.6878C54.6684 24.423 54.6265 24.833 54.5415 24.9179C54.4566 25.0027 53.6509 25.0734 52.1239 25.1299C50.625 25.1865 49.3103 25.2148 48.1787 25.2148C47.7265 25.2148 47.4154 25.1865 47.2456 25.1299C47.1044 25.0734 47.0051 24.9461 46.9489 24.7482C46.8921 24.5503 46.8496 24.1968 46.8215 23.6878C46.7934 23.3485 46.779 22.0618 46.779 19.8279L46.7366 16.0104V11.8111L46.6941 8.75714C46.6941 7.96534 46.7366 7.41392 46.8215 7.10283C46.9345 6.76351 47.1469 6.55142 47.4579 6.4666C47.7689 6.35349 48.2923 6.29697 49.0274 6.29697H51.1483C52.7035 6.29697 53.6509 6.36761 53.9901 6.50901C54.273 6.62212 54.4142 7.0746 54.4142 7.86635C54.4142 8.54504 54.4566 8.88436 54.5415 8.88436C54.6265 8.88436 54.9513 8.61574 55.5171 8.07844C56.5064 7.17353 57.5388 6.56559 58.6136 6.2545Z" fill="white"/>
<g id="Clip path group">
<mask id="mask0_381_4339" style="mask-type:luminance" maskUnits="userSpaceOnUse" x="21" y="0" width="25" height="25">
<g id="clip0_255_12">
<path id="Vector_3" d="M45.9531 0H21.2773V24.6757H45.9531V0Z" fill="white"/>
</g>
</mask>
<g mask="url(#mask0_381_4339)">
<g id="Group">
<g id="Mask group">
<mask id="mask1_381_4339" style="mask-type:luminance" maskUnits="userSpaceOnUse" x="21" y="0" width="25" height="25">
<g id="Group_2">
<path id="Vector_4" d="M21.2773 0H45.9531V24.6757H21.2773V0Z" fill="white"/>
</g>
</mask>
<g mask="url(#mask1_381_4339)">
<g id="Group_3">
<path id="Vector_5" d="M23.269 10C23.269 4.28634 31.1808 2.16877 33.6153 8.78319C36.0498 2.16877 43.9613 4.28634 43.9613 10C43.9613 16.2079 33.6153 24.0789 33.6153 24.0789C33.6153 24.0789 23.269 16.2079 23.269 10Z" fill="#9CB3F4"/>
</g>
</g>
</g>
</g>
</g>
</g>
<path id="Vector_6" d="M72.7933 0.212098C73.2174 0.0707001 73.8254 0 74.6172 0C77.0774 0 78.6751 0.240387 79.4103 0.721105C79.7496 0.919027 79.99 1.27252 80.1314 1.78153C80.2445 2.23396 80.301 3.1671 80.301 4.58102C80.301 6.22115 80.3434 7.04119 80.4283 7.04119L80.598 6.95637C80.7959 6.84327 80.9232 6.77257 80.9797 6.74428L81.4039 6.53218C82.337 6.07975 83.3267 5.85354 84.3731 5.85354C84.6558 5.85354 84.8396 5.86766 84.9245 5.89595C85.5748 5.98076 86.3242 6.17869 87.1725 6.48977C88.0209 6.77257 88.6289 7.04119 88.9965 7.29569C89.9296 8.00263 90.6931 9.09134 91.287 10.5618C91.8808 12.0322 92.305 13.5168 92.5595 15.0155C92.8422 16.5143 92.9836 17.7161 92.9836 18.6209V19.4269C92.9553 19.7097 92.9412 20.0631 92.9412 20.4873C92.9129 21.166 92.8988 21.8729 92.8988 22.6081C92.8988 22.9757 92.8281 23.4141 92.6867 23.9231C92.5453 24.432 92.4181 24.7431 92.305 24.8562C92.1919 24.9693 91.8949 25.0966 91.4142 25.2379C90.9618 25.3793 90.5659 25.45 90.2265 25.45H88.2754C86.3807 25.45 85.2921 25.351 85.0093 25.1531L84.6276 24.8986V21.9718C84.6276 18.5502 84.4438 16.288 84.0761 15.1852C83.9065 14.6762 83.6519 14.2238 83.3126 13.8279C82.9733 13.4037 82.6905 13.1916 82.4643 13.1916C82.1532 13.1916 81.7998 13.3613 81.4039 13.7006C81.0363 14.0117 80.7394 14.4076 80.5131 14.8883C80.2869 15.369 80.1596 15.779 80.1314 16.1184C80.0465 16.7971 79.99 18.1119 79.9617 20.0631C79.9051 22.3536 79.8203 23.81 79.7072 24.432C79.5941 25.0259 79.4385 25.3935 79.2406 25.5348C79.0427 25.6762 78.6326 25.7469 78.0105 25.7469C76.3987 25.7469 75.1403 25.648 74.2354 25.45C73.4154 25.2238 72.9347 25.0259 72.7933 24.8562C72.5105 24.5169 72.3267 23.8241 72.2419 22.7778C72.1853 21.7315 72.1287 19.8652 72.0722 17.1788L72.0298 14.2944C71.9167 8.15814 71.8601 4.46791 71.8601 3.22368C71.8601 2.29054 71.9308 1.58355 72.0722 1.10283C72.2136 0.650408 72.4539 0.353495 72.7933 0.212098ZM102.984 5.93836C104.002 5.82525 104.949 5.76867 105.826 5.76867C106.787 5.76867 107.72 5.83937 108.625 5.98076C110.746 6.37667 112.556 7.21088 114.054 8.48334C115.553 9.75586 116.472 11.2404 116.812 12.9371C116.896 13.3047 116.939 13.7855 116.939 14.3793C116.939 16.1042 116.67 17.6312 116.133 18.9603C115.624 20.2611 114.776 21.4911 113.588 22.6505C112.485 23.7251 111.354 24.4745 110.195 24.8986C109.035 25.2945 107.833 25.4924 106.589 25.4924C104.412 25.4924 102.432 24.9693 100.651 23.9231C98.8693 22.8768 97.4695 21.576 96.4515 20.0207C95.4618 18.4654 94.9669 16.9809 94.9669 15.5669C94.9669 15.1145 95.0376 14.4358 95.179 13.531C96.1122 8.97824 98.7137 6.44737 102.984 5.93836ZM107.098 12.725C106.759 12.5836 106.448 12.5129 106.165 12.5129C105.769 12.5129 105.43 12.6119 105.147 12.8099C104.129 13.432 103.62 14.3227 103.62 15.4821C103.62 15.9063 103.733 16.387 103.959 16.9243C104.468 17.9706 105.274 18.4937 106.377 18.4937C106.971 18.4937 107.48 18.3099 107.904 17.9423C108.328 17.5464 108.583 17.0516 108.668 16.4577C108.696 16.3729 108.71 16.2032 108.71 15.9487C108.71 15.27 108.554 14.6196 108.243 13.9975C107.932 13.3754 107.551 12.9513 107.098 12.725ZM143.037 6.44737C143.518 6.30597 144.083 6.23527 144.734 6.23527C145.469 6.23527 146.318 6.48977 147.279 6.99878C148.24 7.4795 149.004 8.14402 149.57 8.99235C150.135 9.84068 150.573 11.099 150.884 12.7675C151.139 14.1813 151.337 16.5001 151.478 19.7238C151.506 20.0349 151.521 20.657 151.521 21.5901C151.521 23.3716 151.252 24.531 150.715 25.0683L150.248 25.5348L146.897 25.45L144.31 25.4924C143.886 25.4924 143.589 25.4359 143.419 25.3228C143.278 25.2097 143.179 24.9976 143.122 24.6865C143.094 24.3472 143.08 23.7393 143.08 22.8626C143.08 21.9577 143.065 21.1942 143.037 20.5721C142.952 17.6312 142.811 15.7083 142.613 14.8034C142.415 13.8703 142.019 13.333 141.425 13.1916C141.369 13.1634 141.256 13.1492 141.086 13.1492C140.633 13.1492 140.196 13.3189 139.771 13.6582C139.376 13.9693 139.078 14.3793 138.88 14.8883C138.682 15.4538 138.584 16.7546 138.584 18.7906C138.584 19.9217 138.64 21.0387 138.753 22.1415L138.923 23.9655C138.923 24.3896 138.795 24.6724 138.541 24.8138C138.315 24.8986 137.693 24.9693 136.675 25.0259C136.42 25.0541 136.137 25.0683 135.826 25.0683L133.409 25.1531C132.645 25.1531 132.193 25.0259 132.051 24.7714C131.91 24.3472 131.585 21.6184 131.076 16.585C130.963 15.5952 130.821 14.7752 130.652 14.1248C130.539 13.6723 130.326 13.4461 130.015 13.4461C129.817 13.4461 129.521 13.5592 129.125 13.7855C128.446 14.1813 128.008 14.8458 127.81 15.779C127.527 16.7688 127.371 18.4654 127.343 20.869C127.343 21.576 127.329 22.0708 127.301 22.3536C127.272 23.7958 127.174 24.6441 127.004 24.8986C126.834 25.1531 126.41 25.2804 125.731 25.2804C125.053 25.2804 124.473 25.2945 123.992 25.3228L121.871 25.4076C120.74 25.4076 120.047 25.1672 119.793 24.6865C119.482 23.9796 119.326 19.8086 119.326 12.1736L119.284 8.99235C119.284 8.20055 119.383 7.66331 119.581 7.38051C119.779 7.06948 120.146 6.88568 120.684 6.82909C121.249 6.74428 122.281 6.70187 123.78 6.70187C125.307 6.70187 126.269 6.78669 126.664 6.95637C127.089 7.1543 127.301 7.49362 127.301 7.97434C127.301 8.17232 127.357 8.27125 127.47 8.27125C127.584 8.27125 127.894 8.10161 128.403 7.76229C129.817 6.85738 131.373 6.40496 133.07 6.40496C135.275 6.40496 136.929 7.06948 138.032 8.39853L138.584 9.07717L139.517 8.31371C140.563 7.46532 141.736 6.84327 143.037 6.44737ZM155.776 2.07844C156.483 1.34322 157.303 0.975609 158.236 0.975609C159.169 0.975609 159.975 1.30081 160.654 1.95116C161.332 2.60157 161.672 3.32267 161.672 4.11442V4.66584C161.615 5.48593 161.29 6.13628 160.696 6.617C160.102 7.06948 159.31 7.29569 158.321 7.29569H158.066C157.076 7.23911 156.27 6.95638 155.648 6.44737C155.054 5.91007 154.758 5.23143 154.758 4.41133C154.758 3.9872 154.828 3.60541 154.97 3.26609C155.111 2.89848 155.38 2.50258 155.776 2.07844ZM157.557 8.86513C158.094 8.86513 158.519 8.85095 158.83 8.82266H159.975H160.441C160.837 8.82266 161.163 8.86513 161.417 8.94994C161.643 9.03476 161.785 9.13375 161.841 9.24686C161.926 9.35996 161.983 9.58617 162.011 9.9255C162.068 10.6607 162.096 13.2765 162.096 17.7726C162.096 22.495 162.039 24.9128 161.926 25.0259C161.7 25.2521 160.809 25.3652 159.254 25.3652H157.727L156.581 25.3228C155.903 25.3228 155.507 25.3086 155.394 25.2804C155.111 25.2521 154.885 25.1531 154.715 24.9834L154.376 24.6441L154.334 18.9178V17.1364C154.334 12.1877 154.503 9.52965 154.843 9.16204C154.984 8.99235 155.889 8.89336 157.557 8.86513ZM173.331 5.13244C174.038 4.99104 174.773 4.92034 175.537 4.92034H176.088C177.248 4.97692 178.166 5.17484 178.845 5.51416C179.524 5.85354 180.358 6.51806 181.348 7.50779C182.875 9.03476 183.85 10.6749 184.275 12.4281C184.416 13.1351 184.487 13.7289 184.487 14.2096C184.487 15.9346 184.204 16.9102 183.639 17.1364H176.597C174.363 17.1364 173.246 17.1505 173.246 17.1788C173.246 17.5181 173.572 17.8857 174.222 18.2816C174.872 18.6492 175.636 18.932 176.513 19.1299C176.993 19.2148 177.431 19.2572 177.827 19.2572C178.477 19.2572 179.34 19.0875 180.415 18.7482C181.235 18.522 181.758 18.4088 181.984 18.4088C182.267 18.4088 182.493 18.4937 182.663 18.6633C182.861 18.9461 183.158 19.4693 183.554 20.2328C183.95 20.9963 184.147 21.5336 184.147 21.8446C184.147 22.4667 183.624 23.0747 182.578 23.6686C181.56 24.2907 180.485 24.729 179.354 24.9834C178.251 25.2379 176.937 25.3652 175.41 25.3652C173.543 25.3652 172.101 25.1955 171.083 24.8562C170.065 24.5169 168.976 23.7817 167.817 22.6505C166.658 21.5194 165.866 20.4166 165.442 19.342C165.018 18.2675 164.805 17.0091 164.805 15.5669C164.805 13.9834 165.031 12.5412 165.484 11.2404C165.965 9.93967 166.856 8.73785 168.156 7.63502C169.514 6.44737 171.239 5.61315 173.331 5.13244ZM177.318 11.7494C176.951 11.0425 176.315 10.689 175.41 10.689C174.788 10.689 174.236 10.8728 173.755 11.2404C173.303 11.608 173.063 12.0746 173.034 12.6402L172.992 13.1492L175.07 13.2765L176.809 13.3613H177.022C177.135 13.3613 177.205 13.3472 177.233 13.3189H177.318H177.403C177.516 13.2906 177.573 13.1209 177.573 12.8099C177.573 12.4422 177.488 12.0888 177.318 11.7494Z" fill="white"/>
</g>
</svg>
