<svg width="102" height="102" viewBox="0 0 102 102" fill="none" xmlns="http://www.w3.org/2000/svg">
<g id="Group 2" opacity="0.16">
<path id="Vector" d="M51.3007 54.2679C52.1662 52.7178 53.6255 48.8834 54.7248 45.9185C55.7513 42.859 58.163 38.7327 60.0636 36.8071C66.5092 30.2767 67.101 20.9263 62.7733 -6.83188C60.1469 -24.3654 55.0011 -35.8123 45.1224 -46.3346C41.8149 -50.0518 38.6771 -52.5944 38.1813 -52.0921C37.6855 -51.5897 39.2685 -49.1547 42.9597 -45.3215C50.3324 -37.4771 54.1528 -28.8945 58.6395 -9.71179C64.2514 14.5576 64.076 27.6934 58.0435 33.8052C56.4735 35.3959 53.7747 40.4862 52.0284 45.2846C47.7963 56.9769 41.579 63.6126 35.1945 63.3496C32.9351 63.2826 27.964 64.2802 24.2999 65.6366C8.60801 71.4376 0.105489 69.9547 -16.3763 58.886C-26.5336 52.0115 -40.3373 39.071 -42.4248 34.4544C-43.0412 32.8912 -43.8089 32.6592 -44.7179 33.5801C-46.4532 35.3383 -43.1023 39.6846 -33.5921 48.3925C-18.6565 62.0375 -4.25347 71.1736 3.64671 72.257C10.0747 73.1491 17.9467 71.905 30.1005 68.0058C42.0161 64.1795 48.3247 60.144 51.3007 54.2679Z" fill="#FAE18E"/>
<path id="Vector_2" d="M53.361 33.2166C59.3551 18.1022 60.0926 13.3366 57.5366 3.53615C56.3109 -0.914765 54.5421 -9.50352 53.6347 -15.449C51.3612 -30.2238 49.9823 -33.3475 42.354 -41.525C33.7734 -50.747 31.6148 -49.732 39.7926 -40.2694C47.4631 -31.4649 49.0815 -27.0769 53.6816 -3.94361L57.2092 13.4116L54.1837 22.8393C50.7876 33.3123 44.8926 45.3125 41.0945 49.1604C37.9571 52.3392 8.78376 61.8041 4.22517 61.2322C2.2922 61.014 -6.07549 56.2645 -14.4854 50.888C-26.7126 42.8492 -30.5098 39.8315 -34.4235 34.7553C-39.4244 28.269 -42.0197 27.3823 -39.3142 33.1804C-36.8784 38.2471 -27.8245 45.9848 -13.7147 55.1302C-5.3773 60.4127 0.745491 63.5856 3.45367 63.8557C5.77929 64.011 14.5102 62.3649 22.7338 60.0607C37.125 56.0285 38.0855 55.5577 43.3697 50.204C47.9934 45.5196 49.5502 42.7702 53.361 33.2166Z" fill="#FAE18E"/>
<path id="Vector_3" d="M44.8929 31.1457C48.0636 25.7451 51.0886 20.1554 51.6397 18.587C56.1057 4.97266 43.3821 -38.3576 33.2672 -44.4373C30.0201 -46.3657 30.1976 -43.8523 33.6951 -39.316C39.5241 -31.7556 43.0691 -23.7327 46.4212 -10.6328C49.8905 3.18995 50.7588 11.7365 49.0864 16.7974C47.3127 22.2977 37.2271 37.5657 31.2878 43.7514C24.0213 51.4502 19.672 52.6585 5.42958 50.9288C-5.56265 49.6094 -5.94595 49.4927 -16.5868 41.5893C-22.6596 37.1374 -29.2045 31.3121 -31.2447 28.6659C-33.5034 25.7363 -35.3629 24.0854 -35.9395 24.6695C-37.5866 26.3383 -25.3395 39.1791 -15.2086 46.4211C-5.90779 53.1573 -5.06831 53.485 6.24385 54.6486C12.8265 55.3858 19.7576 55.4333 21.8135 54.8653C27.7435 53.2338 37.9654 42.7091 44.8929 31.1457Z" fill="#FAE18E"/>
<path id="Vector_4" d="M37.5399 27.9673C39.0934 25.2181 44.351 8.9784 44.8772 5.08735C45.4624 0.129272 43.5019 -12.3232 40.9798 -18.8341C39.6873 -22.2256 36.4955 -27.8901 33.6612 -31.5664C26.9221 -40.6884 26.9221 -40.6884 25.6022 -39.3512C24.6948 -38.4319 25.9637 -36.0238 30.8761 -29.0805C42.6436 -12.293 44.5845 0.515089 37.8853 18.8869L33.8435 30.0334L25.8536 35.1063C10.5043 45.117 10.5043 45.117 0.691514 42.299C-10.1976 39.2284 -23.6481 30.3581 -27.712 23.5625C-30.7153 18.7143 -33.4552 18.9719 -31.3928 23.9338C-27.1029 33.6905 -7.99567 45.8958 5.32891 47.1705C11.2881 47.8487 12.714 47.4113 21.0967 42.2762C29.7269 36.8904 34.802 32.4201 37.5399 27.9673Z" fill="#FAE18E"/>
<path id="Vector_5" d="M29.4266 25.1368C31.5625 21.6147 34.3757 15.5389 35.7495 11.6005C37.9477 5.29895 37.9738 3.23531 35.8826 -8.05766C33.736 -19.8038 33.1753 -21.1032 28.1963 -27.9425C25.3393 -31.8387 22.6757 -34.9122 22.3456 -34.5777C22.0154 -34.2432 23.7248 -30.882 26.1962 -27.1044C30.6155 -20.0376 33.1817 -11.9422 34.3921 -0.266181C34.9279 4.62363 34.2415 7.35626 30.5576 15.163C25.3801 26.1807 21.373 31.0894 17.5368 31.0713C16.1235 31.1451 13.1047 31.9966 10.857 33.0855C8.04059 34.5808 4.27789 34.6581 -2.23895 33.4513C-12.3263 31.6177 -17.7983 28.3338 -23.4477 20.8156C-26.2402 17.1936 -27.6727 16.0984 -28.4155 16.851C-29.6536 18.1054 -22.3422 26.8258 -15.5655 32.1833C-9.91824 36.6478 5.14377 39.2134 11.3001 36.711C14.0159 35.6572 17.7503 34.5899 19.7968 34.384C23.9722 33.8886 24.2198 33.6377 29.4266 25.1368Z" fill="#FAE18E"/>
<path id="Vector_6" d="M23.4077 18.0806C29.0516 3.13908 30.0957 -3.1175 28.2544 -10.6431C26.36 -18.6181 21.0538 -31.0184 19.4512 -31.5748C16.9385 -32.5507 17.2037 -30.3039 20.3391 -25.0956C25.8938 -15.798 27.4294 -6.95639 25.2363 1.80577C21.84 15.4765 18.674 23.5474 16.2185 24.3582C12.5666 25.7103 -8.86584 25.1205 -12.7536 23.6931C-15.5665 22.5182 -17.2654 20.8854 -20.0477 16.3254C-23.6912 10.458 -26.3687 9.64901 -23.6451 15.2746C-22.8033 16.9372 -21.9085 19.0492 -21.5651 19.8752C-21.2216 20.7012 -19.0872 22.8988 -16.8508 24.6579C-13.4963 27.2964 -10.3442 27.9599 -0.727279 28.4462C9.74673 28.9027 18.5749 28.1757 19.8927 26.8406C20.1398 26.5902 21.6767 22.6853 23.4077 18.0806Z" fill="#FAE18E"/>
<path id="Vector_7" d="M20.1587 2.31855C20.9645 -10.398 20.0702 -19.0121 17.3837 -24.7904C14.9731 -29.8282 14.4497 -27.2579 16.4195 -19.7335C17.3308 -16.0667 17.9124 -7.47581 17.6476 -0.747371C17.2368 10.379 16.8509 11.7899 13.8725 14.8076C10.2321 18.4958 4.27392 19.9422 -5.51001 19.4847C-11.3767 19.1385 -11.4503 19.043 -15.0748 13.1951C-17.3839 9.24441 -19.0947 7.40768 -19.5911 7.91062C-20.0875 8.41356 -18.6798 11.5774 -16.6559 14.967C-12.0931 22.4143 -11.3297 22.8309 1.16657 22.4105C8.55036 22.2397 10.9409 21.5177 14.701 18.5581L19.2793 14.9397L20.1587 2.31855Z" fill="#FAE18E"/>
<path id="Vector_8" d="M14.3566 7.12232C17.7769 -3.68636 14.6635 -25.0657 10.0227 -22.7003C9.31104 -22.48 9.24957 -21.4163 9.89976 -20.573C12.8617 -16.7312 13.714 -0.571391 11.3752 6.30433C10.3347 9.52819 9.60253 10.1031 4.83769 11.9265C-1.90739 14.421 -7.32349 12.7318 -11.1114 7.05648C-14.6103 1.75597 -15.9716 2.4676 -13.0296 7.99857C-9.46817 14.9047 -3.79383 17.5005 3.30222 15.6518C9.76911 13.9398 13.0174 11.4833 14.3566 7.12232Z" fill="#FAE18E"/>
<path id="Vector_9" d="M6.49953 -3.13294C7.9429 -8.29045 7.54599 -13.935 5.72837 -16.2925C3.98345 -18.5557 2.65808 -17.045 3.81778 -14.0209C5.17653 -10.3586 3.31483 -1.75394 0.436435 1.16231C-2.113 3.74527 -8.17491 3.67229 -10.2834 0.937555C-10.865 0.183144 -11.6302 -0.0493786 -12.0414 0.367228C-13.5217 1.86701 -6.73035 5.73594 -2.84719 5.83282C1.74751 5.71267 4.94533 2.64077 6.49953 -3.13294Z" fill="#FAE18E"/>
<path id="Vector_10" d="M1.54368 -8.098C1.25788 -9.57256 0.445259 -10.9945 -0.289815 -11.212C-1.02489 -11.4295 -1.30466 -10.5046 -0.890231 -8.67921C0.0672597 -4.67765 -1.25801 -2.53307 -3.62042 -4.30936C-5.47644 -5.79682 -7.53469 -5.15488 -6.28512 -3.53412C-3.30002 0.337671 2.58894 -3.06272 1.54368 -8.098Z" fill="#FAE18E"/>
</g>
</svg>
