<svg width="204" height="120" viewBox="0 0 204 120" fill="none" xmlns="http://www.w3.org/2000/svg">
<g id="Group 1" opacity="0.16">
<path id="Vector" d="M93.6791 18.9081C92.2653 21.6557 89.8816 28.4523 88.0858 33.7078C86.4091 39.1307 82.4695 46.4448 79.3648 49.858C68.8358 61.4333 67.8692 78.0073 74.9385 127.21C79.2288 158.288 87.6345 178.578 103.772 197.23C109.174 203.818 114.3 208.325 115.11 207.435C115.92 206.544 113.334 202.228 107.304 195.434C95.2609 181.529 89.0201 166.316 81.6911 132.314C72.524 89.296 72.8106 66.0124 82.6646 55.179C85.2294 52.3594 89.6379 43.3367 92.4905 34.8313C99.4036 14.1063 109.56 2.34439 119.989 2.81054C123.68 2.92917 131.8 1.16092 137.785 -1.24327C163.418 -11.5258 177.307 -8.89731 204.23 10.7224C220.822 22.9077 243.371 45.8453 246.781 54.0283C247.788 56.7991 249.042 57.2103 250.527 55.5779C253.361 52.4615 247.888 44.7576 232.353 29.3224C207.955 5.13622 184.428 -11.0577 171.523 -12.9781C161.022 -14.5594 148.163 -12.3543 128.31 -5.44272C108.846 1.33954 98.5406 8.49258 93.6791 18.9081Z" fill="#FAE18E"/>
<path id="Vector_2" d="M90.3138 56.2223C80.5223 83.013 79.3175 91.4603 83.4928 108.832C85.495 116.721 88.3844 131.945 89.8666 142.484C93.5804 168.673 95.8329 174.209 108.294 188.704C122.31 205.051 125.836 203.252 112.478 186.479C99.948 170.873 97.3044 163.095 89.79 122.09L84.0276 91.3275L88.9697 74.6165C94.5173 56.0527 104.147 34.7819 110.351 27.9613C115.476 22.3269 163.131 5.54992 170.578 6.56364C173.735 6.95048 187.404 15.3692 201.142 24.8992C221.115 39.1483 227.318 44.4972 233.711 53.495C241.88 64.9922 246.119 66.5638 241.7 56.2866C237.721 47.3056 222.931 33.5902 199.883 17.3797C186.263 8.01633 176.262 2.39214 171.838 1.91354C168.039 1.63826 153.777 4.55602 140.344 8.64015C116.835 15.7874 115.266 16.622 106.635 26.1115C99.0818 34.4149 96.5387 39.2882 90.3138 56.2223Z" fill="#FAE18E"/>
<path id="Vector_3" d="M104.146 59.8931C98.9661 69.466 94.0247 79.3739 93.1245 82.1538C85.8292 106.286 106.613 183.09 123.136 193.867C128.44 197.285 128.15 192.83 122.437 184.789C112.916 171.388 107.125 157.167 101.649 133.947C95.9819 109.446 94.5635 94.2966 97.2953 85.326C100.193 75.5766 116.668 48.5136 126.37 37.5491C138.24 23.9028 145.344 21.761 168.609 24.827C186.565 27.1657 187.191 27.3724 204.573 41.3816C214.493 49.2727 225.185 59.5982 228.517 64.2886C232.207 69.4816 235.244 72.4078 236.186 71.3725C238.877 68.4144 218.871 45.6536 202.322 32.817C187.129 20.8769 185.758 20.2959 167.279 18.2334C156.526 16.9268 145.204 16.8426 141.846 17.8493C132.159 20.7412 115.462 39.3967 104.146 59.8931Z" fill="#FAE18E"/>
<path id="Vector_4" d="M116.156 65.527C113.618 70.4001 105.03 99.1854 104.17 106.082C103.214 114.871 106.417 136.943 110.537 148.484C112.648 154.496 117.862 164.536 122.492 171.052C133.5 187.222 133.5 187.222 135.656 184.851C137.139 183.222 135.066 178.953 127.041 166.646C107.819 136.89 104.649 114.187 115.592 81.6223L122.194 61.8648L135.246 52.8729C160.319 35.1285 160.319 35.1285 176.348 40.1235C194.136 45.5663 216.107 61.2891 222.746 73.3346C227.652 81.9282 232.127 81.4716 228.758 72.6765C221.751 55.3824 190.539 33.7481 168.773 31.4887C159.039 30.2865 156.709 31.0617 143.016 40.1639C128.919 49.7104 120.628 57.6343 116.156 65.527Z" fill="#FAE18E"/>
<path id="Vector_5" d="M129.409 70.5441C125.92 76.7872 121.325 87.5567 119.081 94.5378C115.49 105.707 115.447 109.365 118.863 129.382C122.37 150.203 123.286 152.506 131.419 164.629C136.086 171.535 140.437 176.983 140.976 176.39C141.515 175.797 138.723 169.839 134.686 163.144C127.467 150.617 123.275 136.268 121.298 115.572C120.423 106.904 121.544 102.061 127.562 88.223C136.019 68.6937 142.565 59.993 148.831 60.0249C151.14 59.8943 156.071 58.385 159.743 56.4549C164.343 53.8043 170.49 53.6674 181.135 55.8064C197.613 59.0565 206.552 64.8773 215.78 78.2036C220.342 84.6237 222.682 86.565 223.895 85.231C225.917 83.0076 213.974 67.5503 202.904 58.054C193.679 50.1405 169.075 45.5929 159.019 50.0285C154.583 51.8964 148.482 53.7882 145.14 54.1532C138.319 55.0313 137.915 55.476 129.409 70.5441Z" fill="#FAE18E"/>
<path id="Vector_6" d="M139.241 83.0512C130.022 109.536 128.316 120.626 131.324 133.965C134.419 148.101 143.086 170.081 145.704 171.067C149.809 172.797 149.376 168.815 144.254 159.583C135.18 143.102 132.672 127.43 136.254 111.899C141.802 87.6672 146.974 73.3612 150.985 71.924C156.95 69.5273 191.961 70.5728 198.311 73.103C202.906 75.1855 205.681 78.0796 210.226 86.1624C216.178 96.5626 220.552 97.9966 216.103 88.025C214.728 85.0779 213.266 81.3344 212.705 79.8703C212.144 78.4062 208.657 74.5108 205.004 71.3929C199.524 66.716 194.375 65.5399 178.666 64.6778C161.557 63.8688 147.136 65.1574 144.983 67.5239C144.58 67.9677 142.069 74.8893 139.241 83.0512Z" fill="#FAE18E"/>
<path id="Vector_7" d="M144.548 110.99C143.232 133.531 144.693 148.8 149.081 159.042C153.019 167.972 153.874 163.416 150.656 150.078C149.168 143.579 148.218 128.351 148.65 116.425C149.321 96.7029 149.952 94.202 154.817 88.8531C160.764 82.3156 170.496 79.7517 186.478 80.5627C196.062 81.1764 196.182 81.3456 202.103 91.7113C205.875 98.714 208.669 101.97 209.48 101.078C210.291 100.187 207.992 94.5787 204.685 88.5705C197.232 75.3699 195.985 74.6314 175.572 75.3767C163.511 75.6794 159.606 76.9592 153.463 82.205L145.985 88.6189L144.548 110.99Z" fill="#FAE18E"/>
<path id="Vector_8" d="M154.027 102.476C148.44 121.634 153.526 159.53 161.106 155.337C162.269 154.947 162.369 153.061 161.307 151.567C156.469 144.757 155.077 116.113 158.897 103.926C160.597 98.2111 161.793 97.1921 169.576 93.9601C180.594 89.5385 189.442 92.5326 195.629 102.592C201.345 111.988 203.568 110.726 198.763 100.922C192.945 88.6811 183.676 84.08 172.084 87.3569C161.521 90.3914 156.215 94.7457 154.027 102.476Z" fill="#FAE18E"/>
<path id="Vector_9" d="M166.862 120.653C164.504 129.795 165.153 139.8 168.122 143.979C170.972 147.991 173.137 145.313 171.243 139.952C169.023 133.461 172.064 118.209 176.766 113.04C180.931 108.461 190.833 108.591 194.277 113.438C195.227 114.775 196.477 115.187 197.149 114.449C199.567 111.791 188.473 104.933 182.13 104.761C174.625 104.974 169.401 110.419 166.862 120.653Z" fill="#FAE18E"/>
<path id="Vector_10" d="M174.958 129.454C175.425 132.068 176.752 134.588 177.953 134.974C179.154 135.359 179.611 133.72 178.934 130.484C177.37 123.391 179.534 119.59 183.393 122.739C186.425 125.375 189.787 124.237 187.746 121.365C182.87 114.502 173.25 120.529 174.958 129.454Z" fill="#FAE18E"/>
</g>
</svg>
