<svg width="24" height="24" viewBox="0 0 24 24" fill="none" xmlns="http://www.w3.org/2000/svg">
<g id="gift" clip-path="url(#clip0_1_5513)">
<path id="Vector" d="M18.4293 2.26432C17.7145 0.927682 16.8576 0.250244 15.8834 0.250244C14.7621 0.250244 13.5976 1.16646 12.4214 2.97476C12.2754 3.20016 12.1348 3.42898 11.9996 3.66101C11.8649 3.42881 11.7245 3.19999 11.5784 2.97476C10.4022 1.16646 9.23768 0.250244 8.11568 0.250244C7.14162 0.250244 6.28544 0.927682 5.57135 2.26432C5.03669 3.26478 5.2293 3.98328 5.48491 4.40956C5.9456 5.17784 6.97535 5.69567 8.63276 5.99149C9.90565 6.21926 11.2526 6.25296 11.9425 6.25296H12.0574C12.7466 6.25296 14.0936 6.21926 15.3671 5.99149C17.0246 5.69562 18.0543 5.17784 18.5149 4.40956C18.7706 3.98328 18.9632 3.26473 18.4293 2.26432Z" fill="#F82456"/>
<path id="Vector_2" d="M22.4993 8.91084C22.4993 8.3579 22.0518 7.91113 21.4995 7.91113H2.50045C1.94822 7.91113 1.5 8.3579 1.5 8.91084V22.7502C1.5 23.3024 1.94822 23.7499 2.50045 23.7499H21.4995C22.0518 23.7499 22.4993 23.3024 22.4993 22.7502V8.91084Z" fill="#A30E41"/>
<path id="Vector_3" d="M23.9992 9.75086C23.9992 10.303 23.5516 10.7499 22.9995 10.7499H1.00045C0.448219 10.7499 0 10.3031 0 9.75086V5.7505C0 5.19827 0.448219 4.75 1.00045 4.75H22.9995C23.5516 4.75 23.9992 5.19822 23.9992 5.7505V9.75086Z" fill="#E61852"/>
<path id="Vector_4" d="M9.5 4.75H14.5001V10.7498H9.5V4.75Z" fill="#F5F7FA"/>
<path id="Vector_5" opacity="0.1" d="M1.5 11.7392L22.4993 13.6485V10.782H1.5V11.7392Z" fill="black"/>
<path id="Vector_6" d="M14.084 12.5413C13.2673 12.5413 12.5298 12.8767 12.0003 13.4172C11.4708 12.8767 10.7333 12.5413 9.91735 12.5413C8.30682 12.5413 7.00098 13.8471 7.00098 15.4576C7.00098 18.7908 12.0003 21.7079 12.0003 21.7079C12.0003 21.7079 17.0004 18.7908 17.0004 15.4576C17.0004 13.8471 15.6945 12.5413 14.084 12.5413Z" fill="#F5F7FA"/>
<path id="Vector_7" opacity="0.1" d="M14.0842 12.5413C13.9165 12.5411 13.7491 12.5556 13.5839 12.5845C14.9564 12.821 16.0008 14.0177 16.0008 15.4576C16.0008 18.1383 12.7666 20.5493 11.501 21.3908C11.8093 21.5959 12.0005 21.7079 12.0005 21.7079C12.0005 21.7079 17.0006 18.7908 17.0006 15.4576C17.0006 13.8471 15.6947 12.5413 14.0842 12.5413Z" fill="black"/>
</g>
<defs>
<clipPath id="clip0_1_5513">
<rect width="24" height="24" fill="white"/>
</clipPath>
</defs>
</svg>
