<svg width="28" height="28" viewBox="0 0 28 28" fill="none" xmlns="http://www.w3.org/2000/svg">
<path d="M22.0041 4.59372H16.625V3.08215L11.4275 6.05715L16.625 9.03215V7.43747H20.6631C22.2053 7.43747 23.6272 8.68434 23.7256 10.2178C23.7678 10.8853 23.5844 11.5477 23.2047 12.0984C22.825 12.6491 22.2711 13.0561 21.6322 13.254L16.4063 14.875H21.9975C22.6726 14.875 23.341 14.742 23.9647 14.4837C24.5884 14.2253 25.1551 13.8467 25.6325 13.3693C26.1098 12.892 26.4885 12.3253 26.7468 11.7016C27.0052 11.0779 27.1381 10.4094 27.1381 9.73434C27.1381 9.05926 27.0052 8.3908 26.7468 7.76711C26.4885 7.14342 26.1098 6.57672 25.6325 6.09937C25.1551 5.62202 24.5884 5.24336 23.9647 4.98502C23.341 4.72668 22.6726 4.59372 21.9975 4.59372H22.0041Z" fill="#4F88FF"/>
<path d="M16.8438 10.5H21.875V24.9375H16.8438V10.5Z" fill="#FFAA4C"/>
<path d="M2.1875 10.5H16.8438V24.9375H2.1875V10.5Z" fill="#FFC960"/>
<path d="M11.5938 10.7188H12.25V14H11.5938V10.7188Z" fill="#FFAA4C"/>
<path d="M11.5938 13.7812L9.625 12.9062L7.4375 13.7812V10.5H11.5938V13.7812Z" fill="#FF5F5F"/>
<path d="M4.15625 21H9.1875V23.1875H4.15625V21Z" fill="#D5E1EF"/>
<path d="M27.125 9.29688C26.7991 6.76812 24.9375 4.59375 22.3125 4.59375H16.4062V2.84375L12.25 5.46875L15.5312 7.28219V6.34375H20.6719C21.7452 6.34375 22.7745 6.77012 23.5334 7.52905C24.2924 8.28799 24.7188 9.31733 24.7188 10.3906C24.7166 11.2543 24.4224 12.0918 23.8838 12.767C23.3452 13.4422 22.5941 13.9153 21.7525 14.1094L21.875 15.0938C24.5 15.0938 27.3438 12.6875 27.125 9.29688Z" fill="#74AAFF"/>
<path d="M0.765625 25.0469H23.2969M2.07812 10.3906H21.9844V25.0469H2.07812V10.3906Z" stroke="#252D32" stroke-width="0.6" stroke-linecap="round" stroke-linejoin="round"/>
<path d="M16.8438 10.7188V24.9375M11.5938 13.7812L9.625 12.9062L7.4375 13.7812V10.5H11.5938V13.7812Z" stroke="#252D32" stroke-width="0.6" stroke-linecap="round" stroke-linejoin="round"/>
<path d="M22.186 14.98C23.5784 14.9533 24.9032 14.3746 25.8689 13.3712C26.8345 12.3677 27.3621 11.0218 27.3354 9.62938C27.3087 8.23699 26.73 6.91223 25.7265 5.94654C24.7231 4.98084 23.3772 4.45331 21.9848 4.48H16.516V2.84375L11.1895 5.90625L16.516 8.96875V7.32812H20.7248C21.4083 7.32739 22.0725 7.55536 22.6115 7.97573C23.1505 8.39611 23.5333 8.98472 23.6991 9.64786C23.8649 10.311 23.8041 11.0105 23.5263 11.6351C23.2485 12.2597 22.7698 12.7734 22.1663 13.0944" stroke="#252D32" stroke-width="0.6" stroke-linecap="round" stroke-linejoin="round"/>
<path d="M12.6875 23.1875V21M13.7812 21V23.1875M14.875 21V23.1875M4.15625 21H9.1875V23.1875H4.15625V21Z" stroke="#252D32" stroke-width="0.6" stroke-linecap="round" stroke-linejoin="round"/>
</svg>
