<svg width="26" height="25" viewBox="0 0 26 25" fill="none" xmlns="http://www.w3.org/2000/svg">
<g id="Right 1">
<path id="Vector" d="M4.4835 18.4639C4.05013 18.8063 3.97636 19.4351 4.31873 19.8685C4.66109 20.3018 5.28994 20.3756 5.72331 20.0333L4.4835 18.4639ZM22.4631 6.80861C22.8964 6.46625 22.9702 5.8374 22.6279 5.40403C22.2855 4.97067 21.6566 4.8969 21.2233 5.23926L22.4631 6.80861ZM13.6376 3.10522C13.0888 3.04332 12.5937 3.43803 12.5318 3.98684C12.4699 4.53564 12.8646 5.03072 13.4135 5.09262L13.6376 3.10522ZM16.8142 4.46985L16.7022 5.46355L16.8142 4.46985ZM22.1912 11.276L23.1839 11.397L22.1912 11.276ZM20.7983 14.4403C20.7315 14.9886 21.1218 15.4871 21.67 15.5539C22.2182 15.6207 22.7168 15.2304 22.7836 14.6822L20.7983 14.4403ZM21.5634 5.71256L22.2634 4.99841L22.2634 4.99841L21.5634 5.71256ZM22.0813 6.3682L22.9381 5.85248L22.9381 5.85248L22.0813 6.3682ZM5.72331 20.0333L22.4631 6.80861L21.2233 5.23926L4.4835 18.4639L5.72331 20.0333ZM13.4135 5.09262L16.7022 5.46355L16.9263 3.47615L13.6376 3.10522L13.4135 5.09262ZM21.1985 11.1551L20.7983 14.4403L22.7836 14.6822L23.1839 11.397L21.1985 11.1551ZM16.7022 5.46355C18.0369 5.61409 18.9537 5.71903 19.643 5.87718C20.3125 6.03081 20.6416 6.20928 20.8634 6.4267L22.2634 4.99841C21.6701 4.41684 20.9359 4.12187 20.0903 3.92784C19.2644 3.73834 18.2143 3.62142 16.9263 3.47615L16.7022 5.46355ZM23.1839 11.397C23.3406 10.1103 23.4699 9.06166 23.4767 8.21435C23.4836 7.34682 23.3666 6.56429 22.9381 5.85248L21.2246 6.88391C21.3848 7.15002 21.4822 7.51144 21.4767 8.19835C21.4711 8.90549 21.361 9.82176 21.1985 11.1551L23.1839 11.397ZM20.8634 6.4267C21.0027 6.56322 21.124 6.71682 21.2246 6.88391L22.9381 5.85248C22.7502 5.54037 22.5235 5.25342 22.2634 4.99841L20.8634 6.4267Z" fill="#262626"/>
</g>
</svg>
