<svg width="20" height="20" viewBox="0 0 20 20" fill="none" xmlns="http://www.w3.org/2000/svg">
<path d="M16.3282 14.505C16.0548 14.2317 15.6116 14.2317 15.3383 14.505C15.0649 14.7784 15.0649 15.2216 15.3382 15.495L16.3282 14.505ZM18.6715 18.8283C18.9449 19.1016 19.3881 19.1016 19.6614 18.8283C19.9348 18.5549 19.9348 18.1117 19.6614 17.8383L18.6715 18.8283ZM7.79083 4.07593C8.17267 4.01545 8.43319 3.65688 8.37271 3.27504C8.31224 2.8932 7.95367 2.63269 7.57183 2.69317L7.79083 4.07593ZM3.52639 6.7386C3.46591 7.12044 3.72643 7.47901 4.10827 7.53949C4.49011 7.59996 4.84868 7.33945 4.90916 6.95761L3.52639 6.7386ZM15.3382 15.495L18.6715 18.8283L19.6614 17.8383L16.3282 14.505L15.3382 15.495ZM9.1665 15.1333C5.41097 15.1333 2.3665 12.0888 2.3665 8.33325H0.966504C0.966504 12.862 4.63777 16.5333 9.1665 16.5333V15.1333ZM15.9665 8.33325C15.9665 12.0888 12.922 15.1333 9.1665 15.1333V16.5333C13.6952 16.5333 17.3665 12.862 17.3665 8.33325H15.9665ZM9.1665 1.53325C12.922 1.53325 15.9665 4.57772 15.9665 8.33325H17.3665C17.3665 3.80452 13.6952 0.133252 9.1665 0.133252V1.53325ZM9.1665 0.133252C4.63777 0.133252 0.966504 3.80452 0.966504 8.33325H2.3665C2.3665 4.57772 5.41097 1.53325 9.1665 1.53325V0.133252ZM7.57183 2.69317C5.48942 3.02299 3.85621 4.65619 3.52639 6.7386L4.90916 6.95761C5.1441 5.47425 6.30747 4.31087 7.79083 4.07593L7.57183 2.69317Z" fill="#111111"/>
</svg>
