<svg width="19" height="20" viewBox="0 0 19 20" fill="none" xmlns="http://www.w3.org/2000/svg">
<g id="Search 1">
<path id="Vector" d="M15.3742 14.5509C15.1008 14.2776 14.6576 14.2776 14.3842 14.5509C14.1108 14.8243 14.1108 15.2675 14.3842 15.5409L15.3742 14.5509ZM17.7175 18.8742C17.9908 19.1475 18.434 19.1475 18.7074 18.8742C18.9808 18.6008 18.9808 18.1576 18.7074 17.8842L17.7175 18.8742ZM6.83679 4.12183C7.21863 4.06135 7.47915 3.70278 7.41867 3.32094C7.35819 2.9391 6.99963 2.67859 6.61779 2.73906L6.83679 4.12183ZM2.57235 6.7845C2.51187 7.16634 2.77239 7.52491 3.15423 7.58539C3.53607 7.64586 3.89464 7.38535 3.95511 7.00351L2.57235 6.7845ZM14.3842 15.5409L17.7175 18.8742L18.7074 17.8842L15.3742 14.5509L14.3842 15.5409ZM8.21246 15.1792C4.45693 15.1792 1.41246 12.1347 1.41246 8.37915H0.0124634C0.0124634 12.9079 3.68373 16.5792 8.21246 16.5792V15.1792ZM15.0125 8.37915C15.0125 12.1347 11.968 15.1792 8.21246 15.1792V16.5792C12.7412 16.5792 16.4125 12.9079 16.4125 8.37915H15.0125ZM8.21246 1.57915C11.968 1.57915 15.0125 4.62361 15.0125 8.37915H16.4125C16.4125 3.85042 12.7412 0.17915 8.21246 0.17915V1.57915ZM8.21246 0.17915C3.68373 0.17915 0.0124634 3.85042 0.0124634 8.37915H1.41246C1.41246 4.62361 4.45693 1.57915 8.21246 1.57915V0.17915ZM6.61779 2.73906C4.53538 3.06889 2.90217 4.70209 2.57235 6.7845L3.95511 7.00351C4.19006 5.52015 5.35343 4.35677 6.83679 4.12183L6.61779 2.73906Z" fill="#B0B0B0"/>
</g>
</svg>
