<svg width="16" height="14" viewBox="0 0 16 14" fill="none" xmlns="http://www.w3.org/2000/svg">
<g id="Arrow Swap Vertical">
<path id="Vector" d="M5.36655 1.16671C5.36655 0.78011 5.05315 0.46671 4.66655 0.46671C4.27996 0.46671 3.96655 0.78011 3.96655 1.16671L5.36655 1.16671ZM2.49809 11.3421L2.00092 11.8349L2.00092 11.8349L2.49809 11.3421ZM1.8304 9.67403C1.55826 9.39944 1.11504 9.39747 0.84046 9.66961C0.565876 9.94176 0.563899 10.385 0.836043 10.6596L1.8304 9.67403ZM13.5017 2.49111L13.9989 1.99835L13.9989 1.99835L13.5017 2.49111ZM14.1694 4.15918C14.4415 4.43377 14.8847 4.43575 15.1593 4.1636C15.4339 3.89146 15.4359 3.44825 15.1637 3.17366L14.1694 4.15918ZM11.5421 1.01302L11.6306 0.318634L11.6306 0.318634L11.5421 1.01302ZM10.6332 12.8334C10.6332 13.22 10.9466 13.5334 11.3332 13.5334C11.7198 13.5334 12.0332 13.22 12.0332 12.8334H10.6332ZM11.4999 1.00819L11.4293 1.70461L11.4999 1.00819ZM4.66656 12.6239L5.36656 12.6239L4.66656 12.6239ZM5.36656 12.6239L5.36655 1.16671L3.96655 1.16671L3.96656 12.6239L5.36656 12.6239ZM2.99527 10.8493L1.8304 9.67403L0.836043 10.6596L2.00092 11.8349L2.99527 10.8493ZM2.00092 11.8349C2.45381 12.2918 2.83437 12.6773 3.17563 12.9514C3.52793 13.2343 3.90548 13.4555 4.36916 13.5146L4.54617 12.1258C4.44372 12.1128 4.30597 12.0635 4.05226 11.8598C3.7875 11.6472 3.47134 11.3297 2.99527 10.8493L2.00092 11.8349ZM13.0045 2.98387L14.1694 4.15918L15.1637 3.17366L13.9989 1.99835L13.0045 2.98387ZM13.9989 1.99835C13.546 1.5414 13.1654 1.15592 12.8241 0.881856C12.4718 0.598926 12.0943 0.377735 11.6306 0.318634L11.4536 1.7074C11.5561 1.72046 11.6938 1.76967 11.9475 1.97342C12.2123 2.18605 12.5284 2.50354 13.0045 2.98387L13.9989 1.99835ZM11.4293 1.70461C11.4374 1.70544 11.4455 1.70636 11.4536 1.7074L11.6306 0.318634C11.6106 0.316083 11.5906 0.31379 11.5705 0.311757L11.4293 1.70461ZM10.6332 1.16671V12.8334H12.0332V1.16671H10.6332ZM11.5705 0.311757C11.0189 0.255817 10.6332 0.709246 10.6332 1.1667L12.0332 1.16671C12.0332 1.43976 11.7974 1.74195 11.4293 1.70461L11.5705 0.311757ZM3.96656 12.6239C3.96656 12.3811 4.18219 12.0794 4.54617 12.1258L4.36916 13.5146C4.96263 13.5902 5.36656 13.0981 5.36656 12.6239L3.96656 12.6239Z" fill="#111111"/>
</g>
</svg>
