<svg width="24" height="23" viewBox="0 0 24 23" fill="none" xmlns="http://www.w3.org/2000/svg">
<g id="Star 1">
<path id="Vector" fill-rule="evenodd" clip-rule="evenodd" d="M7.8356 3.77559C9.14637 -0.258531 14.8536 -0.258531 16.1643 3.77559C16.5497 4.96167 17.655 5.76471 18.9021 5.76471C23.1439 5.76471 24.9075 11.1926 21.4759 13.6858C20.4669 14.4188 20.0447 15.7182 20.4301 16.9043C21.7409 20.9384 17.1236 24.293 13.692 21.7998C12.6831 21.0667 11.3169 21.0667 10.3079 21.7998C6.8763 24.293 2.25907 20.9384 3.56984 16.9043C3.95522 15.7182 3.53304 14.4188 2.5241 13.6858C-0.907535 11.1926 0.856091 5.76471 5.09782 5.76471C6.34494 5.76471 7.45022 4.96167 7.8356 3.77559ZM14.7103 7.14541C14.5774 6.75309 14.1516 6.54279 13.7593 6.67568C13.367 6.80857 13.1567 7.23434 13.2896 7.62666C13.7207 8.89931 14.9434 9.73366 16.2924 9.73366C16.7066 9.73366 17.0424 9.39788 17.0424 8.98366C17.0424 8.56945 16.7066 8.23366 16.2924 8.23366C15.5529 8.23366 14.9246 7.77804 14.7103 7.14541Z" fill="#F2B01C"/>
</g>
</svg>
