<svg width="18" height="18" viewBox="0 0 18 18" fill="none" xmlns="http://www.w3.org/2000/svg">
<g id="Tick Circle">
<path id="Vector" fill-rule="evenodd" clip-rule="evenodd" d="M9.00001 17.3334C13.6024 17.3334 17.3333 13.6024 17.3333 9.00002C17.3333 4.39765 13.6024 0.666687 9.00001 0.666687C4.39763 0.666687 0.666672 4.39765 0.666672 9.00002C0.666672 13.6024 4.39763 17.3334 9.00001 17.3334ZM13.6323 6.91691C13.8626 6.65974 13.8407 6.26462 13.5836 6.03437C13.3264 5.80413 12.9313 5.82596 12.701 6.08313L9.89338 9.21911C9.32447 9.85456 8.94134 10.2802 8.61377 10.5556C8.30173 10.8178 8.11845 10.875 7.95834 10.875C7.79823 10.875 7.61495 10.8178 7.30291 10.5556C6.97534 10.2802 6.59221 9.85456 6.02329 9.21911L5.29898 8.4101C5.06874 8.15293 4.67361 8.1311 4.41645 8.36134C4.15928 8.59159 4.13745 8.98671 4.36769 9.24388L5.12295 10.0875C5.65282 10.6793 6.09479 11.173 6.49863 11.5125C6.92583 11.8715 7.38661 12.125 7.95834 12.125C8.53007 12.125 8.99085 11.8715 9.41805 11.5125C9.82189 11.173 10.2639 10.6793 10.7937 10.0875L13.6323 6.91691Z" fill="#15742D"/>
</g>
</svg>
