<svg width="24" height="24" viewBox="0 0 24 24" fill="none" xmlns="http://www.w3.org/2000/svg">
<g id="tshirt" clip-path="url(#clip0_1_5663)">
<path id="Vector" d="M18.75 11.6129L23.25 9.29032C22.4422 7.22245 21 4.64516 20.25 3.87097C19.5 3.09677 17.25 2.32258 15.75 1.54839L15 0.774194C14.25 0 13.5 0 12 0C10.5 0 9.75 0 9 0.774194L8.25 1.54839C6.75 2.32258 4.5 3.09677 3.75 3.87097C3 4.64516 1.557 7.22245 0.75 9.29032L5.25 11.6129C5.7285 10.6173 6 10.8387 6 10.8387C6 10.8387 5.25 21.6774 5.25 22.4516C5.25 23.2258 6.75 24 12 24C17.25 24 18.75 23.2258 18.75 22.4516C18.75 21.6774 18 10.8387 18 10.8387C18 10.8387 18.2715 10.6173 18.75 11.6129Z" fill="#4880DC"/>
<path id="Vector_2" d="M12 1.54834C11.25 1.54834 10.5 1.54834 9.75 2.32253V3.87092H11.25L12 5.41931L12.75 3.87092H14.25V2.32253C13.5 1.54834 12.75 1.54834 12 1.54834Z" fill="#0047BA"/>
<path id="Vector_3" fill-rule="evenodd" clip-rule="evenodd" d="M0 10.8387C0 11.5161 3.84375 13.1613 4.5 13.1613C4.71525 13.1613 5.016 12.0998 5.25 11.6129L0.75 9.29028C0.53025 9.85235 0 10.6939 0 10.8387ZM23.25 9.29028L18.75 11.6129C18.984 12.0998 19.284 13.1613 19.5 13.1613C20.1562 13.1613 24 11.5161 24 10.8387C24 10.6939 23.469 9.85235 23.25 9.29028Z" fill="#0047BA"/>
<path id="Vector_4" fill-rule="evenodd" clip-rule="evenodd" d="M8.25 1.54836C8.25 4.64514 8.25 5.41933 9 5.41933C9.75 5.41933 11.25 3.87094 11.25 3.87094C11.25 3.87094 10.5 3.09675 9 0.77417L8.25 1.54836ZM15 0.77417C13.5 3.09675 12.75 3.87094 12.75 3.87094C12.75 3.87094 14.25 5.41933 15 5.41933C15.75 5.41933 15.75 4.64514 15.75 1.54836L15 0.77417Z" fill="#CCCCCC"/>
</g>
<defs>
<clipPath id="clip0_1_5663">
<rect width="24" height="24" fill="white"/>
</clipPath>
</defs>
</svg>
