<svg width="32" height="32" viewBox="0 0 32 32" fill="none" xmlns="http://www.w3.org/2000/svg">
<g id="unlocked">
<path id="Vector" d="M19.8247 4.50501L21.9897 9.08501L19.2497 10.31L17.1147 5.79001C16.1697 3.79501 13.7847 2.94001 11.7897 3.88501C9.79471 4.82501 8.93971 7.21501 9.87971 9.21001L12.6197 15H9.49971C9.43471 15 9.36971 15.005 9.30471 15.01L7.16971 10.49C5.51971 7.00001 7.01471 2.82001 10.5047 1.17001C13.9947 -0.47999 18.1747 1.01501 19.8247 4.50501Z" fill="#CACAE5"/>
<path id="Vector_2" d="M15.5 2.5C13 1.5 10.5 2.5 9.00001 4.5C7.50001 7 9.50001 10.5 9.00001 13C9.00001 13.2403 8.88233 13.4801 8.68608 13.6996L9.30501 15.01C9.37001 15.005 9.43501 15 9.50001 15H12.62L9.88001 9.21C8.94001 7.215 9.79501 4.825 11.79 3.885C13.785 2.94 16.17 3.795 17.115 5.79L19.25 10.31L20.7948 9.61937C19.439 6.51831 18 3.5 15.5 2.5Z" fill="#7876AB"/>
<path id="Vector_3" d="M17.7 26.34C17.785 26.73 17.49 27.1 17.09 27.1H14.91C14.51 27.1 14.215 26.73 14.3 26.34L15.15 22.525C14.46 22.165 14.015 21.405 14.16 20.55C14.285 19.79 14.9 19.165 15.66 19.03C16.84 18.82 17.87 19.725 17.87 20.87C17.87 21.59 17.455 22.21 16.85 22.525L17.7 26.34Z" fill="#5E5E84"/>
<path id="Vector_4" d="M12.62 15H22.5C23.605 15 24.5 15.895 24.5 17V29.5C24.5 30.605 23.605 31.5 22.5 31.5H9.5C8.395 31.5 7.5 30.605 7.5 29.5V17C7.5 15.96 8.29 15.105 9.305 15.01C9.37 15.005 9.435 15 9.5 15H12.62ZM17.09 27.1C17.49 27.1 17.785 26.73 17.7 26.34L16.85 22.525C17.455 22.21 17.87 21.59 17.87 20.87C17.87 19.725 16.84 18.82 15.66 19.03C14.9 19.165 14.285 19.79 14.16 20.55C14.015 21.405 14.46 22.165 15.15 22.525L14.3 26.34C14.215 26.73 14.51 27.1 14.91 27.1H17.09Z" fill="#FFC32C"/>
<path id="Vector_5" d="M24.5004 17V29.5C24.5004 30.605 23.6054 31.5 22.5004 31.5H9.50043C8.57043 31.5 7.78543 30.865 7.56543 30H20.5004C21.6054 30 22.5004 29.105 22.5004 28V15.5C22.5004 15.325 22.4804 15.16 22.4354 15H22.5004C23.6054 15 24.5004 15.895 24.5004 17Z" fill="#FFA300"/>
<path id="Vector_6" d="M9 18.128V17.1311C9 16.7826 9.2825 16.5 9.63106 16.5H10.7942C11.3801 16.5 11.6497 17.2289 11.2049 17.6102L10.0417 18.6071C9.63237 18.9579 9 18.6671 9 18.128Z" fill="#FFEDC5"/>
<path id="Vector_7" d="M23 7.5C22.7239 7.5 22.5 7.27637 22.5 7V4.5C22.5 4.22363 22.7239 4 23 4C23.2761 4 23.5 4.22363 23.5 4.5V7C23.5 7.27637 23.2761 7.5 23 7.5ZM24.5 8C24.4343 8.00009 24.3693 7.98719 24.3086 7.96205C24.248 7.93691 24.1929 7.90002 24.1465 7.8535C24.1001 7.80709 24.0632 7.75198 24.0381 7.69133C24.0129 7.63067 24 7.56566 24 7.5C24 7.43434 24.0129 7.36933 24.0381 7.30867C24.0632 7.24802 24.1001 7.19291 24.1465 7.1465L26.1465 5.1465C26.3418 4.95119 26.6583 4.95119 26.8535 5.1465C27.0488 5.34181 27.0488 5.65825 26.8535 5.8535L24.8535 7.8535C24.8071 7.90002 24.752 7.93691 24.6914 7.96205C24.6307 7.98719 24.5657 8.00009 24.5 8ZM27.5 9.5H25.5C25.2239 9.5 25 9.27637 25 9C25 8.72363 25.2239 8.5 25.5 8.5H27.5C27.7761 8.5 28 8.72363 28 9C28 9.27637 27.7761 9.5 27.5 9.5Z" fill="#FFC32C"/>
</g>
</svg>
